<?xml version="1.0" encoding="UTF-8" standalone="no"?>
<!-- Created with Inkscape (http://www.inkscape.org/) -->

<svg
   xmlns:dc="http://purl.org/dc/elements/1.1/"
   xmlns:cc="http://creativecommons.org/ns#"
   xmlns:rdf="http://www.w3.org/1999/02/22-rdf-syntax-ns#"
   xmlns:svg="http://www.w3.org/2000/svg"
   xmlns="http://www.w3.org/2000/svg"
   xmlns:sodipodi="http://sodipodi.sourceforge.net/DTD/sodipodi-0.dtd"
   xmlns:inkscape="http://www.inkscape.org/namespaces/inkscape"
   id="svg3063"
   version="1.1"
   inkscape:version="0.48.5 r10040"
   width="497.48001"
   height="236.64999"
   sodipodi:docname="banner.svg">
  <metadata
     id="metadata3069">
    <rdf:RDF>
      <cc:Work
         rdf:about="">
        <dc:format>image/svg+xml</dc:format>
        <dc:type
           rdf:resource="http://purl.org/dc/dcmitype/StillImage" />
        <dc:title></dc:title>
      </cc:Work>
    </rdf:RDF>
  </metadata>
  <defs
     id="defs3067">
    <filter
       inkscape:label="Colorize"
       inkscape:menu="Color"
       inkscape:menu-tooltip="Blend image or object with a flood color and set lightness and contrast"
       x="0"
       y="0"
       width="1"
       height="1"
       color-interpolation-filters="sRGB"
       id="filter4480">
      <feColorMatrix
         values="1"
         in="SourceGraphic"
         type="saturate"
         result="result2"
         id="feColorMatrix4482" />
      <feFlood
         flood-color="rgb(68,106,174)"
         flood-opacity="1"
         result="result1"
         id="feFlood4484" />
      <feBlend
         in2="result2"
         mode="multiply"
         in="result1"
         result="result3"
         id="feBlend4486" />
      <feComposite
         operator="in"
         result="result4"
         in2="SourceGraphic"
         id="feComposite4488" />
      <feBlend
         blend="normal"
         id="feBlend4490"
         in2="result4"
         mode="normal" />
    </filter>
  </defs>
  <sodipodi:namedview
     pagecolor="#ffffff"
     bordercolor="#666666"
     borderopacity="1"
     objecttolerance="10"
     gridtolerance="10"
     guidetolerance="10"
     inkscape:pageopacity="0"
     inkscape:pageshadow="2"
     inkscape:window-width="1339"
     inkscape:window-height="686"
     id="namedview3065"
     showgrid="false"
     inkscape:zoom="1.3256467"
     inkscape:cx="245.18729"
     inkscape:cy="175.97865"
     inkscape:window-x="34"
     inkscape:window-y="0"
     inkscape:window-maximized="0"
     inkscape:current-layer="svg3063"
     fit-margin-top="0"
     fit-margin-left="0"
     fit-margin-right="0"
     fit-margin-bottom="0" />
  <g
     id="g4412"
     transform="translate(-65.601341,-245.39561)"
     style="filter:url(#filter4480)">
    <path
       style="fill:#a1a1a1"
       d="m 510.87387,478.77286 c -1.70634,-0.90158 -2.90634,-2.20174 -2.66667,-2.88924 0.27797,-0.79737 -0.53429,-1.25 -2.24321,-1.25 -1.47343,0 -3.87342,-0.82143 -5.33332,-1.8254 -3.93262,-2.70446 -8.90889,-4.48278 -10.66183,-3.81011 -0.93149,0.35744 -2.39774,-0.39034 -3.69831,-1.88612 -1.1852,-1.3631 -2.91866,-2.47837 -3.85213,-2.47837 -0.93347,0 -2.21681,-0.62608 -2.85189,-1.39129 -0.63506,-0.76521 -3.12531,-1.6868 -5.53387,-2.04799 -2.4476,-0.36704 -4.62912,-1.308 -4.94582,-2.13327 -0.39921,-1.04032 -1.34274,-1.28178 -3.19355,-0.81726 -2.11984,0.53205 -3.08234,0.10245 -4.986,-2.22543 -4.54737,-5.56073 -2.3149,-7.15244 4.01086,-2.85967 2.04651,1.3888 4.6968,2.44382 5.88954,2.34448 6.36971,-0.53051 9.54427,0.16327 10.19995,2.22915 1.12149,3.5335 4.24883,5.90128 7.79436,5.90128 2.29039,0 4.08038,0.80784 5.75,2.59501 3.05666,3.27189 7.12602,5.41344 10.11283,5.322 1.27131,-0.0389 4.11148,0.39718 6.31148,0.96911 3.55591,0.92443 4.17583,0.81025 5.58376,-1.02846 1.97312,-2.57684 5.30805,-2.09349 5.72627,0.82994 0.17052,1.19194 0.95802,2.70494 1.75,3.36222 2.32569,1.93015 1.70336,2.64223 -2.85524,3.26706 -2.36237,0.32379 -4.94986,0.78512 -5.75,1.02516 -0.80014,0.24005 -2.85088,-0.30121 -4.55721,-1.2028 z m 20.56726,0.31838 c -0.99517,-1.1991 -1.01315,-1.8093 -0.0808,-2.74164 0.93235,-0.93235 1.40916,-0.86727 2.14232,0.29238 2.14238,3.38866 0.4182,5.43714 -2.0615,2.44926 z m 7.53516,-4.45762 c -0.33991,-0.55 -0.14148,-1 0.44099,-1 0.58246,0 1.05901,0.45 1.05901,1 0,0.55 -0.19843,1 -0.44098,1 -0.24254,0 -0.7191,-0.45 -1.05902,-1 z m -6,-1 c 0.33993,-0.55 1.29303,-1 2.11804,-1 0.82499,0 1.22188,0.45 0.88196,1 -0.33991,0.55 -1.29303,1 -2.11802,1 -0.825,0 -1.22189,-0.45 -0.88198,-1 z m -4.03104,-2.05022 c -0.95021,-1.53748 0.35135,-2.52947 1.63485,-1.24598 0.71817,0.71818 0.73542,1.27752 0.0524,1.69964 -0.55992,0.34605 -1.31919,0.1419 -1.68727,-0.45366 z m -6.45998,-4.43302 c -1.57797,-2.94844 -0.37858,-4.92717 2.63481,-4.34685 1.31182,0.25264 1.85621,1.22929 1.85621,3.33009 0,3.84617 -2.65507,4.44728 -4.49102,1.01676 z m -210.50898,-5.51676 c 0.33992,-0.55 0.81648,-1 1.05902,-1 0.24254,0 0.44098,0.45 0.44098,1 0,0.55 -0.47656,1 -1.05901,1 -0.58247,0 -0.78091,-0.45 -0.44099,-1 z m 33.5,-2 c 0,-1.92166 1.95562,-2.71105 3.32466,-1.34201 0.75703,0.75703 -1.13576,3.34201 -2.4471,3.34201 -0.48266,0 -0.87756,-0.9 -0.87756,-2 z m -7.55487,-2.30491 c -3.36094,-3.51521 -7.44058,-6.69509 -8.5895,-6.69509 -0.40568,0 -1.04539,0.49804 -1.4216,1.10676 -0.92186,1.4916 -2.39848,-0.87602 -2.41871,-3.8782 -0.01,-1.44349 -0.92656,-2.68663 -2.51531,-3.41051 -2.73729,-1.2472 -3.4012,-3.81805 -0.98599,-3.81805 2.55522,0 8.49285,4.3723 9.10273,6.70298 0.49361,1.88637 1.37409,2.24567 6.12635,2.5 6.39572,0.34229 8.64586,2.3433 6.49961,5.78 -0.68349,1.09443 -1.24271,2.67099 -1.24271,3.50345 0,2.22985 -1.13812,1.78225 -4.55487,-1.79134 z m 198.05487,0.23708 c -1.64999,-1.0569 -3.77713,-1.92401 -4.72695,-1.92691 -2.45723,-0.007 -5.42928,-4.74903 -3.92169,-6.25661 1.92528,-1.92529 1.29741,-3.50114 -1.82925,-4.5911 -3.88151,-1.3531 -5.17955,0.46079 -2.02989,2.83658 2.9523,2.22692 1.10567,3.45383 -2.66727,1.77214 -3.98743,-1.77727 -17.88619,-12.15552 -23.82495,-17.79014 -2.75,-2.60917 -7.02499,-6.28442 -9.5,-8.16723 -2.475,-1.8828 -8.37964,-7.33504 -13.12142,-12.11609 -6.29403,-6.34614 -9.30215,-8.69281 -11.14301,-8.69281 -1.38687,0 -2.7806,-0.675 -3.0972,-1.5 -0.31657,-0.825 -0.99212,-1.5 -1.50123,-1.5 -1.46033,0 -7.13714,-5.66003 -7.13714,-7.11604 0,-0.72249 -0.89295,-2.22945 -1.98433,-3.34879 -1.09139,-1.11934 -4.73136,-5.29767 -8.08884,-9.28517 -5.66814,-6.73177 -8.89009,-9.20261 -7.59326,-5.82311 0.30115,0.78478 -0.10823,1.97113 -0.90974,2.63633 -1.00125,0.83096 -1.37382,2.79212 -1.19056,6.26687 0.23614,4.47751 -0.0107,5.19878 -2.1524,6.2902 -1.33052,0.67803 -2.83261,1.97163 -3.33799,2.87467 -0.70576,1.26115 -2.17039,1.58392 -6.31594,1.39189 -2.96841,-0.13751 -5.70381,0.0567 -6.07869,0.43157 -1.23043,1.23043 -3.34825,0.71277 -3.34825,-0.81842 0,-0.825 -0.40742,-1.5 -0.90539,-1.5 -1.02111,0 -8.29783,-5.71113 -12.1054,-9.50093 -3.68815,-3.67093 -4.56063,-3.12582 -4.56063,2.84942 0,3.39481 -0.6346,6.31701 -1.73735,8 -2.02881,3.09636 -3.69123,3.44493 -3.69123,0.77395 0,-2.06498 -2.66922,-4.78655 -3.69169,-3.76409 -0.35384,0.35385 -0.14702,2.26056 0.45961,4.23714 1.64878,5.37222 -0.0311,8.39796 -4.67844,8.42675 -1.97421,0.0122 -4.67706,0.8583 -6.00633,1.88015 l -2.41685,1.85792 2.16685,2.7547 c 2.27018,2.88607 2.9383,7.48499 1.08739,7.48499 -0.67914,0 -0.8351,1.11251 -0.42054,3 0.59612,2.71411 0.41872,3 -1.86153,3 -1.38624,0 -2.79855,-0.45 -3.13847,-1 -1.13405,-1.83495 -3.97757,-1.03065 -6.75324,1.91019 -2.85501,3.02488 -3.49474,5.5095 -1.7036,6.61648 1.30207,0.80473 0.43266,13.19508 -1.05136,14.98321 -0.62347,0.75124 -0.78255,3.04132 -0.39096,5.62836 l 0.66022,4.36176 -3.49038,-3.31033 c -1.91971,-1.82068 -4.0908,-5.19568 -4.82465,-7.5 -1.54413,-4.84865 -10.2239,-15.51451 -12.73837,-15.65314 -0.93921,-0.0518 -4.85766,-0.23983 -8.70766,-0.41787 -8.33439,-0.38543 -11.5,-1.25539 -11.5,-3.16037 0,-1.98243 5.06655,-4.36744 12.64725,-5.95353 7.40402,-1.54913 11.35275,-3.75405 11.35275,-6.33925 0,-0.98361 0.94646,-2.8043 2.10325,-4.04596 1.65241,-1.77366 2.99212,-2.1934 6.25,-1.95817 3.80721,0.27489 4.14675,0.10036 4.14675,-2.13149 0,-2.1316 -1.38623,-3.0526 -11.25898,-7.48039 -10.76034,-4.82587 -15.68455,-8.24439 -18.86289,-13.09515 -0.79836,-1.21846 -3.36409,-3.22998 -5.7016,-4.47003 -2.33752,-1.24004 -5.50018,-3.99381 -7.02814,-6.11948 -1.52795,-2.12566 -3.377,-3.86484 -4.109,-3.86484 -0.73199,0 -2.75686,-2.22219 -4.49973,-4.9382 -1.74286,-2.716 -3.70183,-5.11586 -4.3533,-5.33301 -0.65144,-0.21715 -4.27023,1.17282 -8.04171,3.08884 -6.68858,3.39796 -10.63222,7.57539 -10.6409,11.27174 -0.005,2.21544 -7.78855,9.20718 -9.51297,8.54546 -2.15985,-0.82881 -4.95658,-11.36864 -3.48663,-13.13981 1.5459,-1.86272 0.42112,-6.80019 -2.06082,-9.04632 -1.06884,-0.96727 -1.94333,-2.76265 -1.94333,-3.98973 0,-3.62974 -7.74137,-14.37175 -10.83412,-15.03355 -9.34367,-1.9994 -15.47952,-8.34525 -17.2312,-17.82092 -0.57748,-3.12388 -1.69902,-7.51942 -2.49232,-9.76787 -0.7933,-2.24845 -1.44236,-5.15651 -1.44236,-6.46236 0,-2.71645 -3.39322,-3.39789 -4.36104,-0.8758 -0.70603,1.83987 -11.19567,6.60887 -13.00737,5.91365 -0.72114,-0.27672 -1.91752,0.22748 -2.65862,1.12045 -1.16925,1.40886 -0.93138,1.94923 1.79841,4.08561 3.10137,2.42719 3.13773,2.55695 2.56969,9.17192 -0.5111,5.95197 -0.95359,7.06697 -3.91727,9.87103 -1.8376,1.73862 -3.55892,4.21362 -3.82515,5.5 -2.03302,9.82294 -2.95622,12.89074 -4.18651,13.91179 -0.77668,0.64458 -1.41214,2.71724 -1.41214,4.6059 0,2.49606 -0.78801,4.16959 -2.88525,6.12755 -1.58689,1.4815 -3.19222,3.70613 -3.56739,4.94363 -0.37517,1.2375 -1.25636,2.25 -1.9582,2.25 -2.39109,0 -12.65808,-3.91289 -15.4116,-5.87357 -1.5098,-1.07507 -4.46479,-2.27729 -6.56664,-2.6716 -3.60354,-0.67603 -3.76033,-0.60254 -2.74841,1.28825 0.85528,1.59811 0.68663,2.35497 -0.8307,3.72814 -1.04712,0.94762 -2.34062,2.97589 -2.87446,4.50726 l -0.97062,2.78431 5.88326,0.66562 c 3.91925,0.44341 6.19257,1.21835 6.80985,2.32136 0.7218,1.28979 1.23576,1.39918 2.32533,0.49491 0.77432,-0.64262 4.05403,-1.08773 7.34678,-0.99707 4.22393,0.1163 6.85483,-0.37231 9.07635,-1.68564 3.11255,-1.84009 3.14527,-1.83668 6.5,0.67825 6.09044,4.5658 10.8717,4.43226 10.8717,-0.30365 0,-2.45042 1.08785,-2.9756 7.23379,-3.49225 2.88098,-0.24219 7.39487,-1.15669 10.03086,-2.03222 3.30276,-1.097 6.30466,-1.38394 9.65619,-0.92299 6.14119,0.84463 7.21658,-0.62047 2.49864,-3.40412 -3.59014,-2.11823 -4.20281,-4.65749 -1.08615,-4.50166 0.91667,0.0458 3.24167,0.15834 5.16667,0.25 2.49942,0.11902 3.5,0.63237 3.5,1.79567 0,1.94592 10.58486,12.371 12.5606,12.371 1.6329,0 5.933,8.71361 7.27913,14.75022 0.81148,3.63904 0.65695,4.61993 -1.07466,6.82131 -2.26867,2.88415 -1.08849,5.72802 1.22183,2.94425 1.16108,-1.39902 1.42462,-1.32332 2.43274,0.69876 1.60619,3.2217 4.2009,3.43347 4.96103,0.40489 0.62022,-2.47114 -0.0902,-5.09776 -3.0869,-11.41278 -2.73773,-5.76934 2.24143,-7.28784 5.20623,-1.58775 4.02151,7.73172 12.52759,16.34791 19.75417,20.0099 3.73176,1.89102 4.9435,3.10956 5.40957,5.43992 0.33034,1.65167 1.35124,3.54939 2.26868,4.21716 2.56966,1.87035 5.06758,5.93226 5.06758,8.24046 0,1.14473 1.575,3.60788 3.5,5.47366 4.40943,4.27379 4.63089,6.4073 0.57255,5.51594 -2.6343,-0.5786 -2.95975,-0.36897 -3.25,2.09342 -0.42843,3.63467 -1.71122,3.86992 -5.32255,0.9761 l -3,-2.40395 2.2275,-3.01982 c 2.2741,-3.08301 2.17985,-3.90661 -1.0148,-8.86802 -1.23156,-1.91266 -3.53125,-0.3963 -4.23105,2.78987 -0.70725,3.22012 -2.19867,3.81746 -3.17551,1.27185 -0.37383,-0.97418 0.0466,-2.14016 1.03138,-2.86024 1.95604,-1.43029 2.19922,-3.49335 0.41248,-3.49934 -1.94505,-0.007 -11.11717,-4.86446 -12.39359,-6.56418 -0.62897,-0.83756 -2.75588,-1.78447 -4.72645,-2.10425 -3.15752,-0.5124 -3.69585,-0.28428 -4.5345,1.92154 -0.65556,1.72426 -1.89626,2.64161 -3.98792,2.9486 -2.61076,0.38318 -3.17413,0.0502 -4.01989,-2.37594 -0.63536,-1.82259 -1.68924,-2.82158 -2.97661,-2.82158 -2.67536,0 -3.3221,-1.31468 -2.1558,-4.38226 0.7362,-1.93635 0.60039,-2.91926 -0.56428,-4.08392 -1.96082,-1.96084 -2.23125,-1.93373 -4.23067,0.42408 -1.52516,1.79854 -1.92815,1.84175 -4.95153,0.53093 -2.10659,-0.91334 -3.67154,-2.5179 -4.34782,-4.45789 -0.58112,-1.66702 -1.57507,-3.04525 -2.20877,-3.06274 -0.63369,-0.0175 -0.31961,-0.66255 0.69797,-1.43347 2.04223,-1.54719 1.28082,-3.99083 -0.97389,-3.12561 -1.76244,0.6763 -13.37625,-10.2164 -13.37625,-12.5457 0,-0.90719 -0.675,-1.90846 -1.5,-2.22505 -0.825,-0.31658 -1.5,-1.52272 -1.5,-2.68031 0,-1.46688 -0.53033,-2.00204 -1.75,-1.76591 -2.97185,0.57533 -2.22198,6.03656 1.04524,7.61242 3.06662,1.4791 3.63659,4.19543 0.88033,4.19543 -1.30342,0 -2.24446,1.35648 -3.29523,4.75 -1.16997,3.77848 -1.97287,4.81845 -3.92557,5.08468 -3.45434,0.47095 -4.51827,1.78142 -2.96537,3.65255 1.00408,1.20983 1.04533,2.14114 0.17906,4.04238 -1.26856,2.78418 -2.94667,3.21194 -3.80683,0.97039 -0.32,-0.83389 -1.80594,-1.5 -3.34617,-1.5 -1.52382,0 -3.32666,-0.67005 -4.00632,-1.48899 -1.6024,-1.93077 -3.00914,-1.01711 -3.00914,1.95439 0,1.85503 0.41947,2.23767 2,1.82435 1.76081,-0.46046 2,-0.0307 2,3.59362 0,4.32767 0.91965,5.1233 3.01023,2.6043 0.95467,-1.15031 1.58244,-1.24069 2.62245,-0.37756 1.71524,1.42352 1.7022,3.86482 -0.0328,6.15098 -1.18345,1.55935 -1.48021,1.58799 -2.59065,0.25 -0.68978,-0.8311 -1.80488,-1.51109 -2.47804,-1.51109 -2.62502,0 -7.70667,-3.33136 -8.57817,-5.62356 -0.50443,-1.32677 -2.05022,-2.8431 -3.43509,-3.36962 -1.38486,-0.52653 -2.51793,-1.66385 -2.51793,-2.52738 0,-1.26654 -0.72495,-1.44076 -3.75,-0.9012 -2.0625,0.36787 -4.65,1.46154 -5.75,2.43037 -3.03278,2.67115 -5.78694,3.15966 -11.10035,1.9689 -3.68417,-0.82564 -5.38788,-0.78659 -7.16449,0.16423 -1.79821,0.96237 -3.29956,0.98839 -6.56945,0.11382 -5.58226,-1.49302 -19.56807,-0.51522 -21.91845,1.5324 -1.46982,1.2805 -2.39635,1.33414 -5.74017,0.33231 -3.60509,-1.08011 -4.27605,-0.98129 -6.99726,1.03059 -1.65541,1.22389 -3.00983,2.59063 -3.00983,3.0372 0,0.44657 -0.85787,0.81194 -1.90638,0.81194 -1.45392,0 -1.77393,-0.50646 -1.34835,-2.13388 0.30691,-1.17364 0.15228,-1.9467 -0.34362,-1.71791 -0.49591,0.22878 -2.17249,1.05145 -3.72574,1.82815 -2.27988,1.14006 -3.20727,1.17289 -4.81255,0.17038 -1.09365,-0.683 -2.8603,-0.9651 -3.9259,-0.62689 -1.32321,0.41997 -1.93746,0.14386 -1.93746,-0.8709 0,-0.81721 -1.575,-2.45923 -3.5,-3.64895 -1.925,-1.18972 -3.5,-2.77486 -3.5,-3.52254 0,-2.05432 -1.719968,-2.69769 -3.979328,-1.48852 -1.775897,0.95043 -2.020667,0.78003 -2.020667,-1.4067 0,-3.46229 1.938494,-7.55726 5.217675,-11.02208 2.04189,-2.15748 2.78232,-3.9538 2.78232,-6.75 0,-2.09559 0.40663,-3.81016 0.90362,-3.81016 0.49699,0 2.47019,-1.38695 4.38491,-3.08211 2.42062,-2.14305 3.32587,-3.67646 2.97115,-5.03288 -0.55907,-2.1379 2.23951,-5.88501 4.39531,-5.88501 1.8177,0 1.70967,-1.64609 -0.15499,-2.36163 -2.62822,-1.00854 -1.60934,-3.02971 3.5985,-7.13837 7.37948,-5.82195 9.9015,-8.54817 9.9015,-10.7032 0,-1.05114 0.50343,-3.91043 1.11872,-6.35398 1.35123,-5.36623 4.03051,-5.98872 6.36292,-1.47834 1.56575,3.02784 1.33903,4.41683 -2.04617,12.53552 -0.69519,1.66727 -0.28892,1.5425 2.44203,-0.75 3.89748,-3.27174 5.55947,-3.43044 7.85453,-0.75 0.94185,1.1 2.65282,2 3.80216,2 2.24167,0 6.46581,-4.89382 6.46581,-7.49089 0,-0.86454 0.65787,-1.82433 1.46194,-2.13288 0.80406,-0.30854 1.75049,-1.47015 2.10317,-2.58135 0.63254,-1.99297 13.61996,-8.79488 16.79275,-8.79488 0.81892,0 3.43592,-1.4665 5.81554,-3.2589 2.37963,-1.79239 5.4516,-3.76143 6.8266,-4.37565 1.71885,-0.76782 3.06943,-2.74543 4.3224,-6.32917 1.27622,-3.65021 2.70059,-5.7105 4.75257,-6.87434 1.6116,-0.91407 3.17257,-2.41233 3.46882,-3.32948 1.77882,-5.50689 7.42173,-9.37622 14.96841,-10.26377 2.80044,-0.32936 6.42881,-1.64181 8.49238,-3.07187 1.98161,-1.37325 4.34342,-2.49682 5.24848,-2.49682 2.13519,0 7.53846,5.61157 9.32223,9.68162 0.76692,1.74989 1.85123,3.46395 2.40956,3.80902 0.55833,0.34507 1.01515,1.54236 1.01515,2.66065 0,1.11829 0.88572,3.15927 1.96827,4.53551 1.08255,1.37624 2.47565,5.08117 3.09577,8.23319 l 1.1275,5.73094 5.65423,1.84791 c 7.13681,2.33244 11.09392,6.14838 14.20138,13.69474 0.61004,1.48147 3.09773,4.32306 5.52818,6.31463 2.43045,1.99158 4.69407,4.71697 5.03025,6.05642 0.33618,1.33945 0.95177,2.43537 1.36797,2.43537 0.97793,0 5.64646,-3.51557 9.76767,-7.35539 l 3.24121,-3.01992 5.25879,2.10811 c 2.89233,1.15947 6.15879,2.36765 7.25878,2.68485 1.1,0.3172 3.575,2.49049 5.5,4.82954 1.925,2.33905 5.72926,6.27781 8.45392,8.75281 2.72465,2.475 8.02411,7.34046 11.77656,10.81213 7.17467,6.6378 11.78611,9.18787 16.61496,9.18787 1.60032,0 3.46987,0.675 4.15456,1.5 0.75509,0.90982 2.94493,1.5 5.56574,1.5 3.33884,0 4.6855,0.51137 5.92526,2.25 l 1.60441,2.25 3.05542,-3.5 c 7.75542,-8.88388 20.30609,-20.99964 21.74994,-20.99626 2.42412,0.006 7.78185,3.58225 9.65991,6.44852 2.01104,3.06925 3.78819,3.20508 7.16645,0.54774 1.39842,-1.1 3.40425,-2 4.45739,-2 2.83155,0 7.59965,-2.7282 8.84944,-5.06346 0.60129,-1.12352 3.50984,-3.58863 6.46345,-5.47803 2.95362,-1.8894 5.65154,-3.8905 5.99541,-4.44689 1.25269,-2.0269 3.10178,-0.88835 7.7016,4.74211 8.20197,10.03972 27.03027,28.588 34.76329,34.24627 2.95719,2.16378 13.29587,10.98842 35.10747,29.96618 6.95924,6.05507 16.73859,13.49049 24.01097,18.25597 7.12603,4.66958 8.16554,5.96672 7.3585,9.1822 -0.76352,3.04211 -1.85752,3.13941 -5.93465,0.52782 z m -17.69036,-15.68217 c -0.40594,-2.10784 -2.18069,-1.97493 -2.63296,0.19718 -0.18865,0.90598 0.36259,1.55282 1.32332,1.55282 1.02996,0 1.52043,-0.6554 1.30964,-1.75 z m -163.64119,-7.48155 c -0.74207,-0.74207 -0.87221,-0.35164 -0.43723,1.31171 0.35361,1.3522 0.80689,1.8055 1.05655,1.05655 0.24048,-0.72144 -0.0382,-1.78716 -0.61931,-2.36826 z m -57.66845,-15.76845 c 0.33992,-0.55 0.14148,-1 -0.44098,-1 -0.58246,0 -1.05902,0.45 -1.05902,1 0,0.55 0.19844,1 0.44099,1 0.24253,0 0.71909,-0.45 1.05901,-1 z m -90.5,-12 c 0,-0.55 -0.45,-1 -1,-1 -0.55,0 -1,0.45 -1,1 0,0.55 0.45,1 1,1 0.55,0 1,-0.45 1,-1 z m 55.5,-3.5 c 0,-1.08494 -0.78749,-2.12427 -1.75,-2.30963 -1.31075,-0.25243 -1.75,0.32729 -1.75,2.30963 0,1.98234 0.43925,2.56206 1.75,2.30963 0.96251,-0.18536 1.75,-1.22469 1.75,-2.30963 z m -36.5,-10.5345 c 2.29718,-1.82859 2.35803,-2.07419 0.75,-3.02746 -0.9625,-0.57058 -1.75,-1.69006 -1.75,-2.48773 0,-0.79767 -0.9,-1.45031 -2,-1.45031 -1.7037,0 -2,0.66667 -2,4.5 0,5.0558 1.07807,5.5874 5,2.4655 z m 74.34508,63.49137 c -0.32569,-0.84872 -0.33097,-1.80431 -0.0118,-2.12354 1.00905,-1.00904 3.66667,0.53862 3.66667,2.13529 0,1.99604 -2.88802,1.98677 -3.65492,-0.0117 z m 19.05493,-6.85687 c -0.36607,-0.95394 -0.17057,-2.22943 0.43442,-2.83443 0.8,-0.8 1.28152,-0.62698 1.76557,0.63443 0.36607,0.95394 0.17057,2.22943 -0.43443,2.83443 -0.8,0.8 -1.28152,0.62698 -1.76556,-0.63443 z m -24.24228,-0.84227 c -0.84056,-0.84056 -0.71391,-1.59066 0.49395,-2.92532 1.25263,-1.38414 1.35992,-2.11351 0.46886,-3.18719 -0.91246,-1.09944 -0.64529,-1.7266 1.27028,-2.98172 2.09982,-1.37586 2.58583,-1.39656 3.61703,-0.15405 0.6552,0.78946 1.25897,2.8663 1.34171,4.6152 0.12663,2.67633 -0.34133,3.38436 -2.95547,4.47166 -2.30952,0.9606 -3.39578,1.00199 -4.23635,0.16142 z m 126.83313,-0.26874 c -0.981,-1.18204 -0.981,-1.79594 0,-2.97798 1.50425,-1.81251 3.00914,-1.06785 3.00914,1.48899 0,2.55684 -1.50489,3.3015 -3.00914,1.48899 z m -12.61176,-0.94346 c -0.32714,-0.8525 -0.32561,-2.62251 0.003,-3.93334 0.37829,-1.50726 0.0503,-2.838 -0.89216,-3.62021 -2.08438,-1.72989 -1.87083,-2.91 1.00967,-5.57956 2.92206,-2.70808 3.27182,-5.41242 0.7,-5.41242 -2.29129,0 -4.2,1.89271 -4.2,4.16482 0,0.97065 -0.9349,2.26516 -2.07756,2.87669 -1.14362,0.61204 -1.84086,1.72869 -1.55103,2.48399 0.98917,2.57774 -3.26947,2.81643 -5.3661,0.30076 -2.27573,-2.73056 -2.43812,-4.16948 -0.80601,-7.142 0.65962,-1.20134 1.0808,-3.17096 0.93595,-4.37693 -0.22032,-1.83439 0.35986,-2.29185 3.5507,-2.79965 5.55123,-0.88343 13.22501,-3.3727 10.62307,-3.44598 -1.20504,-0.0339 -2.44375,-0.47068 -2.75269,-0.97055 -0.64294,-1.04031 4.98804,-6.09115 6.79078,-6.09115 0.65651,0 4.33448,2.93049 8.17327,6.5122 5.13812,4.79402 7.95689,6.67268 10.68364,7.12046 2.03722,0.33454 4.46946,1.45405 5.40499,2.4878 0.93553,1.03375 2.16953,1.87954 2.74223,1.87954 1.8828,0 8.57388,5.18872 9.18858,7.12545 0.33105,1.04307 1.86283,2.54853 3.40394,3.34547 2.47633,1.28056 4.68986,5.22879 3.56315,6.35551 -0.22757,0.22757 -1.52994,0.13362 -2.89415,-0.20877 -1.75763,-0.44114 -2.57252,-1.41542 -2.79657,-3.34359 -0.25632,-2.20582 -1.04877,-2.92555 -4.18515,-3.80104 -2.12792,-0.59399 -4.97775,-2.06763 -6.33296,-3.27474 -1.72249,-1.53426 -3.19139,-2.01219 -4.88104,-1.58811 -1.43486,0.36012 -2.41704,0.1692 -2.41704,-0.46983 0,-0.59206 -1.22046,-1.71594 -2.71213,-2.4975 -2.5,-1.30989 -2.97006,-1.2243 -6.00988,1.09429 -2.74333,2.09243 -3.97244,2.40743 -7.31081,1.8736 -3.84666,-0.6151 -3.98829,-0.54303 -3.41573,1.73824 0.41244,1.64329 0.11001,2.56695 -0.97706,2.9841 -0.86591,0.33228 -1.57439,1.52685 -1.57439,2.65459 0,1.66284 0.45196,1.937 2.39091,1.45035 1.31499,-0.33004 2.67233,-0.14471 3.01631,0.41185 0.79397,1.28469 -0.007,1.72506 -4.67028,2.56655 -2.91413,0.5259 -3.89723,0.32944 -4.35784,-0.87089 z m -201.3791,-3.54553 c 0,-0.55 0.45,-1 1,-1 0.55,0 1,0.45 1,1 0,0.55 -0.45,1 -1,1 -0.55,0 -1,-0.45 -1,-1 z m -4.19431,-2.52713 c -0.82825,-1.81779 -0.84669,-2.83187 -0.0657,-3.61286 1.67063,-1.67063 3.1345,-0.15046 3.04045,3.15737 -0.10369,3.647 -1.4282,3.84981 -2.97475,0.45549 z m 340.69431,-6.47287 c -0.8155,-1.31952 0.38021,-3.19207 1.5691,-2.45729 1.21461,0.75067 1.20672,3.45729 -0.0101,3.45729 -0.51754,0 -1.2191,-0.45 -1.55902,-1 z m -253.5,-3 c 0,-0.55 0.45,-1 1,-1 0.55,0 1,0.45 1,1 0,0.55 -0.45,1 -1,1 -0.55,0 -1,-0.45 -1,-1 z m 99.63948,-0.69385 c -1.19516,-1.19516 -0.64571,-3.30615 0.86052,-3.30615 0.825,0 1.5,0.64844 1.5,1.44098 0,1.67065 -1.42728,2.79841 -2.36052,1.86517 z m -98.97281,-2.97282 c -0.36667,-0.36666 -0.66667,-1.13166 -0.66667,-1.7 0,-0.6266 0.46577,-0.56756 1.18333,0.15 0.65085,0.65084 0.95084,1.41584 0.66668,1.7 -0.28417,0.28417 -0.81667,0.21667 -1.18334,-0.15 z m 74.88928,-0.66876 c -1.76544,-1.29092 -1.76656,-1.36977 -0.029,-2.03653 2.2126,-0.84905 4.33599,0.90905 2.86933,2.37571 -0.67166,0.67166 -1.61136,0.55944 -2.8403,-0.33918 z m -171.55595,-0.66457 c 0,-0.55 0.70156,-1 1.55902,-1 0.85746,0 1.2809,0.45 0.94098,1 -0.33992,0.55 -1.04148,1 -1.55902,1 -0.51754,0 -0.94098,-0.45 -0.94098,-1 z m -86.936,-4.42289 c -0.6799,-0.81923 -0.97199,-1.91697 -0.64909,-2.43943 0.92575,-1.4979 4.71764,-0.063 4.38352,1.65875 -0.41883,2.1583 -2.26995,2.54527 -3.73443,0.78068 z m 428.46722,0.12976 c -0.42806,-0.98622 -0.4977,-2.07372 -0.15476,-2.41666 1.01549,-1.0155 1.83409,0.41094 1.3667,2.38152 -0.41435,1.74695 -0.46826,1.74851 -1.21194,0.0351 z M 169.8563,420.18151 c -1.00472,-2.61826 0.64843,-3.83213 2.69569,-1.97939 1.03242,0.93434 1.63619,2.08865 1.3417,2.56515 -0.85175,1.37817 -3.42714,1.00452 -4.03739,-0.58576 z m 59.78007,-1.78781 c -1.36434,-1.36434 -1.51553,-3.42237 -0.30631,-4.16971 0.46958,-0.29021 1.35261,0.56716 1.96229,1.90528 1.21849,2.67428 0.17744,4.09785 -1.65598,2.26443 z m 264.73992,-5.86008 c -2.6856,-2.6856 -1.22569,-4.35008 3.00116,-3.42171 3.19452,0.70164 3.5306,1.233 2.49185,3.93992 -0.83751,2.18253 -2.9959,1.9789 -5.49301,-0.51821 z m 24.1,-5.71113 c 0,-0.51919 0.61796,-1.45684 1.37326,-2.08368 1.60646,-1.33325 4.88113,-0.37691 4.34189,1.26802 -0.45281,1.38127 -5.71515,2.13231 -5.71515,0.81566 z m -32.54249,-1.87422 c -1.3684,-1.3684 -1.39832,-1.8024 -0.20648,-2.99425 1.75196,-1.75196 4.74897,-0.69199 4.74897,1.6796 0,2.48136 -2.61808,3.23906 -4.54249,1.31465 z m 7.54249,-2.20766 c 0,-1.12404 2.60112,-2.17254 3.40223,-1.37142 1.20377,1.20376 0.54696,2.26443 -1.40223,2.26443 -1.1,0 -2,-0.40186 -2,-0.89301 z m -75.5,-1.10699 c -0.33992,-0.55 0.0835,-1 0.94099,-1 0.85746,0 1.55901,0.45 1.55901,1 0,0.55 -0.42344,1 -0.94098,1 -0.51754,0 -1.2191,-0.45 -1.55902,-1 z m 62.01008,-2.98369 c -0.73755,-1.19337 0.19857,-3.01631 1.54894,-3.01631 1.2168,0 1.22469,2.70662 0.0101,3.45729 -0.512,0.31644 -1.21355,0.11799 -1.55901,-0.44098 z m 25.92517,-0.12108 c -0.45133,-0.73027 0.15674,-1.95617 1.51642,-3.05718 3.15406,-2.554 4.23423,-2.29911 3.86475,0.91195 -0.34191,2.97157 -3.97527,4.42003 -5.38117,2.14523 z m -105.09017,-1.43836 c -0.32569,-0.84872 -0.28998,-1.8453 0.0793,-2.21463 0.81901,-0.81901 3.80734,0.95308 4.34938,2.5792 0.59254,1.77761 -3.74368,1.42066 -4.42873,-0.36457 z m 90.87927,-18.62993 c 0.51124,-1.53372 4.76025,-1.82273 4.80674,-0.32694 0.0171,0.55 -1.15694,1.14712 -2.60897,1.32694 -1.84434,0.2284 -2.50675,-0.073 -2.19777,-1 z m -11.49538,-2.89169 c -0.97406,-0.582 -1.51001,-1.48051 -1.19099,-1.99671 0.85208,-1.37869 3.83727,-1.14514 7.09771,0.5553 1.57538,0.82161 2.18931,1.50276 1.36431,1.51365 -0.825,0.0109 -2.39999,0.23719 -3.5,0.50287 -1.1,0.26568 -2.79696,0.007 -3.77103,-0.57511 z M 363.66318,364.88362 c 0.18345,-0.9625 1.34144,-1.8938 2.57333,-2.06955 1.70114,-0.2427 2.23978,0.17815 2.23978,1.75 0,1.55658 -0.63784,2.06955 -2.57332,2.06955 -1.91119,0 -2.48751,-0.45029 -2.23979,-1.75 z m -12.14567,-5.29365 c -1.90231,-1.06088 -3.92732,-2.13178 -4.5,-2.37979 -0.59879,-0.25932 -0.29763,-1.05559 0.70878,-1.87398 0.9625,-0.78269 1.75,-2.16096 1.75,-3.06282 0,-0.95403 0.8082,-1.63976 1.93261,-1.63976 1.06295,0 2.19509,-0.82694 2.51586,-1.83765 0.32079,-1.01071 2.59354,-3.93571 5.05057,-6.5 l 4.46731,-4.66235 -2.76067,0 c -1.51837,0 -3.79087,-0.72158 -5.05001,-1.60352 -2.54064,-1.77953 -7.58712,-1.41228 -16.82894,1.22472 -6.73135,1.92068 -16.68943,1.4495 -17.12462,-0.81027 -0.21155,-1.09848 0.84855,-2.00257 3.29478,-2.8099 4.12717,-1.36209 4.16441,-3.34637 0.0718,-3.8275 -1.74793,-0.20549 -3.57222,0.41322 -4.92287,1.66961 -1.5124,1.40682 -3.32667,1.93609 -6.14585,1.79288 -2.47469,-0.12571 -5.80943,0.6676 -8.74511,2.08039 -5.26213,2.53242 -7.30292,2.82393 -8.31421,1.18763 -1.2294,-1.98924 2.00561,-3.8562 8.13421,-4.69433 3.32147,-0.45424 7.13842,-1.62892 8.48208,-2.61039 2.05283,-1.49948 2.1236,-1.70293 0.44302,-1.27382 -1.09999,0.28087 -4.69193,0.81796 -7.98206,1.19354 -3.29014,0.37557 -7.56514,1.29583 -9.5,2.04501 -1.93487,0.74918 -4.86793,1.49125 -6.51794,1.64905 -2.38572,0.22815 -3.06056,-0.13667 -3.29578,-1.78173 -0.3713,-2.59703 3.31891,-4.43137 8.91481,-4.43137 2.53869,0 5.67661,-0.96798 8.49811,-2.62149 5.3736,-3.14914 4.98072,-4.22596 -0.84085,-2.30466 -2.32853,0.76848 -6.70679,1.40374 -9.72947,1.41169 -4.44153,0.0117 -5.56269,-0.32124 -5.8446,-1.73554 -0.22999,-1.15381 0.27235,-1.75078 1.4745,-1.7523 2.88732,-0.004 14.30101,-4.39194 14.29916,-5.4977 -0.003,-1.87757 -16.2529,-0.59294 -19.69556,1.55704 -2.8397,1.77343 -3.96135,0.58407 -2.32777,-2.4683 0.91739,-1.71416 1.02882,-3.50777 0.38664,-6.22318 l -0.90221,-3.81494 -7.46847,-1.24588 c -8.88699,-1.48251 -10.79115,-2.36544 -17.87087,-8.2865 -5.34864,-4.47328 -5.47682,-4.51824 -12.88084,-4.51824 -5.93253,0 -7.70109,-0.34965 -8.55556,-1.69146 -1.51486,-2.37886 1.74975,-5.80854 5.52897,-5.80854 1.58411,0 3.89145,-0.6626 5.12742,-1.47244 3.09932,-2.03075 9.68241,-0.97923 9.68241,1.54658 0,0.99685 0.81013,2.40047 1.8003,3.11916 0.99016,0.71868 2.39476,2.7692 3.12132,4.5567 0.72656,1.7875 1.72254,3.25 2.21327,3.25 1.03973,0 4.68525,-1.96315 6.91475,-3.72367 1.25006,-0.9871 2.36168,-0.8219 5.75,0.8545 2.31021,1.143 4.20036,2.3713 4.20036,2.72956 0,1.10999 6.3868,3.5738 8.5616,3.30278 1.13389,-0.14131 3.32177,0.22219 4.86197,0.80777 2.10446,0.80012 2.67147,1.55763 2.28166,3.04826 -0.28529,1.09096 -0.11998,1.73713 0.36736,1.43594 0.48734,-0.3012 1.72644,-0.0979 2.75355,0.45181 1.30741,0.69971 2.24044,0.6386 3.11113,-0.20375 0.97853,-0.9467 2.3691,0.0265 6.52296,4.56539 3.70074,4.04372 5.76677,5.58153 6.90954,5.14301 0.89664,-0.34407 1.63023,-0.15776 1.63023,0.41402 0,0.57178 0.9119,1.32903 2.02645,1.68277 1.14461,0.36329 1.90613,1.35593 1.75,2.28114 -0.15478,0.9171 0.51105,1.79955 1.51292,2.00512 1.48771,0.30527 1.67554,-0.0863 1.11424,-2.32266 -0.66352,-2.64369 -0.60438,-2.68165 3.44827,-2.21352 2.762,0.31904 4.49804,0.0248 5.25819,-0.89109 1.49455,-1.80083 3.80883,-1.74233 4.52129,0.11431 0.39152,1.02029 1.08239,1.21327 2.21861,0.61973 0.90752,-0.47408 3.14022,-0.6357 4.96156,-0.35916 2.51431,0.38175 3.78756,-0.008 5.28895,-1.61973 1.08758,-1.16739 2.4099,-2.12253 2.93848,-2.12253 0.52857,0 0.96104,-1.13614 0.96104,-2.52475 0,-1.75089 0.74198,-2.80685 2.42073,-3.44511 1.79392,-0.68205 2.28159,-1.45245 1.88337,-2.97525 -0.61928,-2.36817 -0.0569,-2.54199 2.68466,-0.82984 1.64659,1.02832 2.18581,0.91847 3.35758,-0.684 0.97138,-1.32845 2.85311,-1.99373 6.18718,-2.18743 2.63518,-0.1531 5.25817,-0.7453 5.82886,-1.31599 1.59667,-1.59668 5.63762,-1.26526 5.63762,0.46237 0,3.56846 3.64069,0.49024 4.87392,-4.12091 1.03483,-3.86937 2.81966,-4.05071 3.62837,-0.36864 0.63198,2.87736 0.7869,2.9773 2.01968,1.30297 1.2742,-1.73058 1.36667,-1.73221 2.02427,-0.0356 1.04716,2.70165 3.70451,3.68058 7.60383,2.80114 2.43312,-0.54875 4.07608,-0.38673 5.32283,0.52491 1.35128,0.98808 2.31299,1.04595 3.83609,0.23081 2.72085,-1.45615 4.45956,0.93982 5.30457,7.30978 0.57027,4.29892 0.8289,4.68916 2.5111,3.78887 1.0551,-0.56468 1.87534,-2.08172 1.87534,-3.46847 0,-2.76065 1.16495,-3.17592 2.93302,-1.04554 0.92779,1.11793 0.81585,1.62188 -0.52727,2.37353 -1.13709,0.63635 -1.51456,1.68305 -1.13308,3.14189 0.69827,2.6702 -1.60967,3.86043 -3.86162,1.99148 -1.28724,-1.06831 -1.71504,-1.05235 -2.42128,0.0904 -1.09604,1.77342 -0.3457,2.98344 1.85001,2.98344 0.99496,0 2.20002,1.26708 2.85476,3.0017 0.8023,2.1255 1.59605,2.82403 2.71925,2.39301 0.87241,-0.33478 1.58621,-0.11054 1.58621,0.4983 0,0.60885 -0.5051,1.10699 -1.12244,1.10699 -0.76585,0 -0.71913,0.48595 0.14702,1.52961 0.95016,1.14488 0.99778,2.12589 0.18935,3.90023 -1.31505,2.88621 -0.58435,3.83877 1.91755,2.49979 1.39638,-0.74731 1.86852,-2.12818 1.86852,-5.46481 0,-4.87621 1.05237,-5.56106 3.75,-2.44042 0.9625,1.11342 2.83303,3.14289 4.15674,4.50993 1.3237,1.36704 2.22371,2.63681 2,2.8217 -1.34329,1.11025 -7.46859,3.64406 -8.81038,3.64453 -1.77227,6.2e-4 -12.98275,6.65271 -16.40564,9.73479 -1.2049,1.08493 -4.89072,3.02824 -8.19072,4.31847 -6.4902,2.53752 -8.78735,3.94618 -6.43518,3.94618 0.80563,0 3.144,-0.9 5.19637,-2 2.05237,-1.1 4.44972,-2 5.32747,-2 0.87774,0 2.74006,-0.9 4.13848,-2 1.39842,-1.1 3.16301,-2 3.92129,-2 0.75829,0 2.1601,-0.44661 3.11514,-0.99248 3.4738,-1.98548 12.37064,-5.00752 14.74208,-5.00752 5.52944,0 -1.40954,5.7117 -11.05938,9.10335 -3.22995,1.13524 -7.01421,2.85332 -8.40945,3.81796 -1.39525,0.96464 -4.67431,2.33545 -7.28681,3.04625 -2.64893,0.72071 -4.75,1.88281 -4.75,2.62722 0,1.20761 -2.91299,3.40522 -4.51371,3.40522 -0.35486,0 -0.33545,-1.41027 0.0431,-3.13393 l 0.68831,-3.13393 -3.54887,2.70686 c -1.95189,1.48877 -3.68838,3.64058 -3.85888,4.7818 -0.39003,2.61067 -2.99953,4.30418 -5.2824,3.42816 -1.5693,-0.6022 -1.5967,-0.89452 -0.27319,-2.91445 0.87324,-1.33273 1.2774,-3.56448 0.99455,-5.4917 -0.29572,-2.01482 0.13374,-4.17793 1.13195,-5.70138 1.65805,-2.53049 11.78333,-7.75968 17.42395,-8.99857 2.6572,-0.58362 6.81428,-4.25707 5.87757,-5.19378 -0.43726,-0.43725 -19.80701,7.50253 -22.32002,9.14912 -1.26059,0.82599 -3.05759,1.5018 -3.99329,1.5018 -1.6264,0 -2.66783,0.76597 -7.72949,5.68492 -1.23656,1.2017 -4.33195,3.24115 -6.87863,4.5321 -2.54667,1.29096 -5.59237,3.57024 -6.76821,5.06509 -2.50237,3.18122 -5.1361,3.35967 -9.95153,0.67424 z m -60.04122,-55.95635 c 0,-0.55 -0.45,-1 -1,-1 -0.55,0 -1,0.45 -1,1 0,0.55 0.45,1 1,1 0.55,0 1,-0.45 1,-1 z m 119,-1 c 0,-0.55 -0.70155,-1 -1.55901,-1 -0.85746,0 -1.2809,0.45 -0.94099,1 0.33992,0.55 1.04148,1 1.55902,1 0.51754,0 0.94098,-0.45 0.94098,-1 z m -34,-4.34698 c -1.375,-0.72462 -2.71197,-1.14352 -2.97104,-0.93089 -0.70327,0.57722 2.24689,2.24716 3.97104,2.24781 0.82676,3.2e-4 0.37795,-0.59075 -1,-1.31692 z m -101.58752,-0.2578 c 1.83067,-0.7025 1.14411,-2.39522 -0.97149,-2.39522 -0.79255,0 -1.44099,0.675 -1.44099,1.5 0,1.68232 0.18369,1.75048 2.41248,0.89522 z m 186.58752,57.60478 c 0,-0.55 0.70156,-1 1.55902,-1 0.85746,0 1.2809,0.45 0.94098,1 -0.33992,0.55 -1.04147,1 -1.55901,1 -0.51754,0 -0.94099,-0.45 -0.94099,-1 z m -118,-5 c 0,-0.55 0.47656,-1 1.05902,-1 0.58246,0 0.7809,0.45 0.44098,1 -0.33992,0.55 -0.81648,1 -1.05901,1 -0.24255,0 -0.44099,-0.45 -0.44099,-1 z m 124,-3 c -0.5887,-1.1 -1.61703,-2.00129 -2.28518,-2.00288 -0.66815,-0.002 -2.11482,-1.36566 -3.21482,-3.0313 -2.22031,-3.36202 -4.8854,-3.38102 -9.1012,-0.0649 -1.82651,1.43674 -3.93844,1.7399 -11.03046,1.58338 -4.91037,-0.10837 -8.92143,-0.6436 -9.11221,-1.21592 -0.90003,-2.70009 14.58797,-7.95738 18.02441,-6.11826 1.4929,0.79898 2.40821,0.55144 4.20597,-1.13746 2.24958,-2.11338 2.32631,-2.11847 3.65565,-0.24243 1.31716,1.85885 3.8509,2.79233 10.61711,3.91159 3.93652,0.65117 4.86197,1.86169 3.07682,4.02459 -1.0492,1.27121 -1.06768,1.70915 -0.0861,2.03953 0.6875,0.23139 1.25,1.28321 1.25,2.33738 0,2.65691 -4.56741,2.59347 -6,-0.0833 z m -181.62,-8.45211 c -0.76867,-2.00314 0.37207,-3.54789 2.62,-3.54789 2.50006,0 3.46279,1.73744 1.96365,3.54381 -1.55002,1.86766 -3.86772,1.86972 -4.58365,0.004 z m -4.93867,-5.61272 c -1.90896,-2.10937 -1.90686,-2.11284 1.07299,-1.77433 1.74961,0.19875 2.98568,0.92566 2.98568,1.75583 0,2.28777 -1.99677,2.29687 -4.05867,0.0185 z m 154.55867,0.0648 c 0,-0.55 0.70156,-1 1.55902,-1 0.85746,0 1.2809,0.45 0.94098,1 -0.33992,0.55 -1.04147,1 -1.55901,1 -0.51754,0 -0.94099,-0.45 -0.94099,-1 z m 44.25,-1.70573 c -1.35228,-0.26046 -2.25,-1.16091 -2.25,-2.25683 0,-1.0029 -0.675,-2.08248 -1.5,-2.39907 -1.67687,-0.64347 -2.0154,-3.2018 -0.54402,-4.11116 1.87809,-1.16072 7.95369,2.26465 8.60258,4.85006 0.62781,2.50141 -0.0561,4.74502 -1.36757,4.48655 -0.38005,-0.0749 -1.70349,-0.3312 -2.94099,-0.56955 z m -219.25,-7.79427 c 0,-0.825 0.6199,-1.5 1.37756,-1.5 0.75765,0 1.93775,0.675 2.62244,1.5 1.05275,1.26848 0.84012,1.5 -1.37755,1.5 -1.6644,0 -2.62245,-0.54799 -2.62245,-1.5 z M 88.877736,315.23737 c -0.33848,-0.88206 -1.163832,-1.60375 -1.834116,-1.60375 -2.095137,0 -5.675757,-4.55386 -4.988606,-6.34454 0.822645,-2.14378 3.060797,-2.12203 4.271576,0.0415 0.882767,1.57741 1.220921,1.58339 4.79969,0.0848 2.117508,-0.88671 4.644269,-1.86382 5.615023,-2.17135 0.970754,-0.30754 2.161375,-1.60168 2.645824,-2.87588 1.193843,-3.14004 3.724843,-5.08831 5.650343,-4.34943 0.87265,0.33487 1.44088,1.36328 1.26273,2.28534 -0.17815,0.92207 0.91359,2.91382 2.42609,4.4261 3.1538,3.15336 3.28489,3.79478 1.3207,6.46233 -1.40548,1.90878 -1.48819,1.90968 -4.96196,0.0541 l -3.53267,-1.88699 -3.572826,3.13699 c -1.965057,1.72535 -3.970369,3.13699 -4.456248,3.13699 -0.485879,0 -1.591427,0.27169 -2.456774,0.60375 -0.942402,0.36164 -1.820156,-0.0394 -2.188776,-1 z m 171.098554,-7.60375 c -0.99397,-1.60828 0.42514,-3 3.05902,-3 2.67479,0 3.09434,0.94664 1.24098,2.8 -1.46049,1.46049 -3.46339,1.55365 -4.3,0.2 z M 107.54983,291.48218 c -1.10241,-1.1833 -1.79093,-2.49681 -1.53005,-2.91892 0.73578,-1.19052 6.45651,2.03785 6.45651,3.6436 0,2.117 -2.64096,1.72851 -4.92646,-0.72468 z m 30.92646,-4.74875 c -5.1264,-0.6833 -5.59294,-2.12473 -1.17348,-3.62562 1.66131,-0.5642 3.8779,-1.8017 4.92576,-2.75 1.04786,-0.94831 2.51577,-1.72419 3.26201,-1.72419 0.74625,0 2.37542,-0.95693 3.62038,-2.12651 3.04027,-2.85619 5.37263,-1.83163 5.33859,2.34512 -0.0241,2.96034 -0.55904,3.55045 -5.46727,6.03139 -2.9923,1.5125 -5.56776,2.68241 -5.72326,2.59981 -0.1555,-0.0826 -2.30773,-0.42011 -4.78273,-0.75 z"
       id="path4418"
       inkscape:connector-curvature="0" />
    <path
       style="fill:#616161"
       d="m 477.17014,458.99414 c -0.79893,-0.79893 0.10419,-2.36052 1.36517,-2.36052 0.51754,0 0.94098,0.675 0.94098,1.5 0,1.54641 -1.17996,1.9867 -2.30615,0.86052 z m 31.10876,-19.61441 c -7.13758,-5.10509 -20.98851,-17.3148 -32.32652,-28.49611 -6.34544,-6.25775 -11.18867,-10.25 -12.43487,-10.25 -1.12267,0 -2.04122,-0.57471 -2.04122,-1.27714 0,-1.54878 -5.49282,-7.72286 -6.87072,-7.72286 -0.5409,0 -5.12016,-4.725 -10.17617,-10.5 -9.27052,-10.58887 -12.82663,-12.8403 -13.03077,-8.25 -0.055,1.2375 -0.17788,4.725 -0.27299,7.75 -0.20082,6.3875 -1.15252,8.36319 -3.70682,7.69522 -1.3021,-0.3405 -1.92006,0.14032 -2.13715,1.66288 -0.38356,2.69025 -3.11443,3.13473 -10.20969,1.66177 -5.22763,-1.08526 -13.33048,-6.15646 -16.39697,-10.26213 -1.89322,-2.53479 -4.59693,-3.7477 -6.17709,-2.77111 -0.94088,0.5815 -1.30091,2.56983 -1.14832,6.34167 0.24453,6.04409 -0.99395,7.77749 -3.76506,5.26966 -0.97115,-0.87888 -2.46965,-1.59796 -3.33,-1.59796 -2.03059,0 -3.12166,2.88129 -1.72726,4.56142 0.59701,0.71936 0.94228,2.79983 0.76725,4.62326 -0.29517,3.07507 -0.60424,3.33866 -4.26513,3.63742 -3.81338,0.31121 -9.55311,3.41702 -9.55311,5.16927 0,0.47035 1.125,2.19217 2.5,3.82626 2.89326,3.43845 3.07113,4.18237 1,4.18237 -0.825,0 -1.5,-0.86968 -1.5,-1.93261 0,-2.10557 -2.49667,-3.24067 -7.84535,-3.56684 -3.1771,-0.19375 -3.31666,-0.0606 -2.77499,2.64772 0.61791,3.08952 -0.26155,3.52049 -3.57039,1.74965 -2.14507,-1.14801 -5.32482,-0.12056 -8.99625,2.90691 -0.92784,0.7651 -2.09218,1.14067 -2.58743,0.83459 -0.49524,-0.30608 -2.4361,0.75655 -4.31301,2.3614 -3.30212,2.82346 -8.21757,3.93273 -9.3448,2.10883 -0.30265,-0.48969 1.11709,-1.20315 3.15498,-1.58546 2.03788,-0.38231 5.3612,-2.00665 7.38515,-3.60965 2.02395,-1.603 4.18623,-2.91454 4.80506,-2.91454 0.68905,0 0.89112,-0.93243 0.52135,-2.40572 -0.46996,-1.87246 -0.13105,-2.55575 1.52893,-3.08261 1.17301,-0.3723 2.7456,-0.16828 3.49465,0.45338 1.05386,0.87463 1.70464,0.641 2.87706,-1.03288 1.87634,-2.67885 0.93103,-5.63707 -2.39347,-7.48997 -3.53416,-1.96976 -16.60149,-7.4422 -17.77081,-7.4422 -0.54674,0 -4.34726,-3.375 -8.4456,-7.5 -4.09833,-4.125 -8.10174,-7.5 -8.89647,-7.5 -0.79472,0 -2.76878,-1.79245 -4.38677,-3.98321 -1.61802,-2.19077 -3.69487,-4.23516 -4.61523,-4.54308 -0.92036,-0.30792 -3.10723,-2.79429 -4.85969,-5.52526 -3.4347,-5.35252 -6.90557,-7.09094 -9.60369,-4.81012 -0.88595,0.74892 -3.9176,2.51238 -6.73702,3.91881 -3.92338,1.95713 -5.53913,3.48231 -6.88598,6.5 -3.15192,7.062 -4.19955,8.60324 -6.97054,10.25485 -1.98357,1.18227 -3.03079,1.3269 -3.82893,0.52877 -1.62613,-1.62614 -2.39085,-9.09349 -1.09158,-10.65904 0.74433,-0.89686 0.81029,-2.38233 0.20019,-4.50956 -0.73219,-2.55303 -0.61824,-3.17216 0.5838,-3.17216 1.08264,0 1.40734,-0.89414 1.1802,-3.25 -0.24729,-2.56462 -0.77287,-3.25647 -2.49229,-3.28069 -3.00519,-0.0423 -5.57201,-2.61216 -8.41092,-8.42079 -2.44279,-4.99814 -2.81049,-5.25257 -11.91015,-8.24108 -5.97306,-1.96166 -10.4483,-7.75518 -12.00126,-15.53654 -1.32727,-6.65042 -3.88687,-16.10913 -4.92815,-18.21138 -1.15235,-2.32651 -2.8484,-2.3449 -4.77269,-0.0517 -2.3228,2.76803 -8.93973,5.99222 -12.29768,5.99222 -1.76916,0 -3.36327,0.99977 -4.89283,3.06861 -2.91848,3.94745 -2.15294,6.31994 1.76183,5.46011 2.25512,-0.49531 2.97278,-0.24086 3.346,1.18633 0.26132,0.99929 0.12738,2.7097 -0.29765,3.80092 -0.42503,1.09122 -0.5551,3.33403 -0.28904,4.98403 0.39645,2.45859 -0.22349,3.75556 -3.43517,7.18669 -3.04357,3.25154 -4.06221,5.2669 -4.56045,9.02285 -0.35285,2.65989 -1.50776,6.45234 -2.56647,8.42766 -1.05871,1.97533 -2.23414,5.23974 -2.61206,7.25425 -0.39463,2.10353 -1.52263,4.10989 -2.64979,4.71313 -1.07946,0.57771 -2.42112,2.36551 -2.98145,3.9729 -0.56034,1.60739 -1.33945,2.92252 -1.73136,2.92252 -1.54992,0 -13.50219,-5.05724 -14.99903,-6.34638 -2.19284,-1.88857 -11.1663,-3.98007 -12.2834,-2.86297 -0.52549,0.52548 -0.25822,1.42186 0.64826,2.17418 1.71632,1.42441 2.08234,4.03517 0.56572,4.03517 -0.93113,0 -5.02334,7.48477 -5.02334,9.18783 0,0.44669 2.63026,0.81217 5.84502,0.81217 4.57501,0 6.23827,0.43456 7.65498,2 2.11066,2.33225 4.33524,2.59294 5.10086,0.59777 0.38506,-1.00346 2.19149,-1.36423 6.35195,-1.26859 3.36713,0.0774 6.93303,-0.46531 8.47322,-1.28959 2.44825,-1.31026 3.08464,-1.1932 8.01659,1.47469 4.5901,2.48297 5.71853,2.73333 7.88035,1.74833 1.39851,-0.6372 2.66885,-2.16503 2.85007,-3.42776 0.28573,-1.99086 1.20971,-2.42069 7.32696,-3.40845 3.85,-0.62166 9.11596,-1.73448 11.70213,-2.47295 3.79021,-1.08226 5.1552,-1.10017 7.03837,-0.0923 1.7003,0.90998 3.07435,0.96969 5.04786,0.21935 3.59418,-1.3665 3.42641,-2.25247 -1.02648,-5.42075 l -3.73812,-2.65975 4.23812,0 c 3.24559,0 4.23813,0.38059 4.23813,1.62514 0,0.89382 2.25,3.66624 5,6.16093 4.63579,4.2054 6.32291,7.21393 4.04544,7.21393 -0.52499,0 -2.07954,-1.125 -3.45454,-2.5 -2.79076,-2.79076 -4.8023,-3.15514 -6.45102,-1.16856 -0.85189,1.02647 -0.28337,2.05887 2.48205,4.50718 1.97288,1.74665 4.66503,3.44628 5.98255,3.77696 3.13129,0.7859 3.04687,2.00412 -0.19525,2.81784 -3.14476,0.78929 -11.39324,-3.65627 -12.14944,-6.548 -0.82305,-3.14734 -2.19872,-2.11951 -2.88196,2.15325 -0.81443,5.09317 -2.87783,4.63849 -2.87783,-0.63414 0,-2.14749 -0.36406,-4.46703 -0.80902,-5.15453 -1.27708,-1.9732 -8.09476,-1.50683 -10.96385,0.75 -1.39842,1.1 -3.37161,2.00689 -4.38486,2.01531 -2.56561,0.0213 -3.95522,1.10821 -4.77488,3.73469 -0.38619,1.2375 -1.31652,2.25 -2.06739,2.25 -1.48022,0 -2.96411,3.44003 -2.09234,4.85059 0.59909,0.96935 -1.54392,6.12939 -2.55067,6.14161 -1.17571,0.0143 -1.68509,-2.65282 -0.77978,-4.08288 1.51697,-2.3963 1.01894,-4.74403 -1.15257,-5.43324 -2.73703,-0.8687 -3.34045,-0.11476 -1.83611,2.29408 0.74368,1.19081 0.90699,2.70653 0.41453,3.84737 -0.76797,1.77913 -0.8361,1.78358 -1.24104,0.0811 -0.35058,-1.47396 -1.27674,-1.74661 -5.09524,-1.5 -4.28332,0.27662 -4.64452,0.50143 -4.39589,2.73586 0.35674,3.20588 -5.30892,8.69382 -7.28351,7.05505 -1.01783,-0.84471 -1.46422,-0.35453 -2.01503,2.21269 -0.38915,1.81378 -0.89531,3.61769 -1.1248,4.00869 -0.63174,1.07633 -7.29473,-2.52761 -7.32295,-3.9609 -0.0382,-1.94114 -2.79955,-1.47505 -5.14263,0.86803 -1.585,1.585 -2.31244,1.80349 -2.8905,0.86817 -0.52314,-0.84645 -1.9375,-1.03131 -4.38197,-0.57272 -2.1594,0.40508 -3.60951,0.28179 -3.60951,-0.30691 0,-0.54123 -2.1375,-1.29395 -4.75,-1.67273 -6.14165,-0.89046 -6.70038,-1.27871 -4.82396,-3.35213 1.43353,-1.58404 1.27251,-1.85506 -2.04094,-3.43513 -3.90927,-1.8642 -6.3851,-0.98174 -6.3851,2.27584 0,3.79386 -5.51568,5.57098 -8,2.57756 -0.68468,-0.825 -2.31478,-1.5 -3.62244,-1.5 -2.42293,0 -3.18497,1.38296 -1.37756,2.5 1.52203,0.94066 1.19274,3.5 -0.45031,3.5 -0.79767,0 -1.85414,-0.72161 -2.34771,-1.60358 -0.71842,-1.28374 -1.32668,-1.38347 -3.04969,-0.5 -1.18376,0.60697 -3.0345,1.54628 -4.11275,2.08737 -1.07826,0.54108 -2.6801,0.70763 -3.55966,0.37011 -1.0876,-0.41735 -1.77736,0.0677 -2.15616,1.51622 -0.30634,1.17143 -1.17949,2.12988 -1.94035,2.12988 -1.89329,0 -1.75271,-2.64429 0.18002,-3.38595 2.98127,-1.14402 0.50796,-2.4949 -2.82027,-1.54038 -1.77645,0.50948 -3.34538,0.92633 -3.48651,0.92633 -0.14113,0 -0.25661,-1.09844 -0.25661,-2.44098 0,-1.34254 -0.39626,-2.68589 -0.88059,-2.98523 -0.48433,-0.29933 -1.10371,-1.71135 -1.3764,-3.13783 -0.55221,-2.88869 1.62057,-4.47239 3.52421,-2.56874 1.72183,1.72182 2.45324,1.38272 3.16905,-1.46929 0.35919,-1.43114 2.51033,-5.06198 4.7803,-8.06854 3.32979,-4.41028 4.29682,-5.16341 5.00502,-3.89793 0.48795,0.87193 2.18806,1.56854 3.8281,1.56854 2.48034,0 2.95031,-0.39825 2.95031,-2.5 0,-1.375 -0.45,-2.5 -1,-2.5 -0.55,0 -1,-0.65045 -1,-1.44543 0,-0.79499 -1.2375,-2.03694 -2.75,-2.75988 -3.11365,-1.48826 -5.76495,-8.7897 -3.46955,-9.55484 0.67075,-0.22358 1.21955,-1.2484 1.21955,-2.27738 0,-1.05478 2.07196,-3.4573 4.75,-5.5078 l 4.75,-3.63694 0.31643,2.59113 c 0.41517,3.39982 2.1545,3.2747 5.68357,-0.40886 3.3377,-3.4838 5.4709,-3.8273 6.21026,-1 0.40398,1.54483 1.36401,2 4.21832,2 2.93511,0 4.14544,-0.60883 5.88337,-2.95951 1.20343,-1.62773 2.18805,-3.45411 2.18805,-4.05864 0,-1.39797 6.05595,-8.98185 7.17227,-8.98185 0.46065,0 3.16955,-1.125 6.01979,-2.5 2.85023,-1.375 5.9347,-2.5 6.85436,-2.5 0.91967,0 3.64795,-1.57063 6.06285,-3.49029 2.41491,-1.91967 4.87479,-3.49467 5.46642,-3.5 1.34396,-0.0121 5.42431,-4.27768 5.42431,-5.67052 0,-2.27447 3.34645,-7.53992 5.38119,-8.46701 1.19014,-0.54227 3.05376,-2.63641 4.14137,-4.65364 2.35524,-4.36841 8.60001,-8.17443 13.47745,-8.21413 1.925,-0.0157 5.45843,-1.14808 7.85207,-2.51646 2.39363,-1.36837 4.89286,-2.48795 5.55383,-2.48795 1.62413,0 7.2181,5.90194 8.53037,9 0.58243,1.375 1.47766,3.175 1.9894,4 2.75163,4.43593 6.07432,12.74844 6.07432,15.19634 0,3.23712 3.11432,6.80366 5.94098,6.80366 1.06754,0 2.2191,0.45 2.55902,1 0.33992,0.55 1.32738,1 2.19435,1 2.59978,0 6.78361,4.92057 10.8537,12.76497 0.93172,1.79573 3.00251,4.0379 4.60176,4.9826 1.59926,0.9447 3.68228,3.40135 4.62896,5.45923 0.94668,2.05788 2.35375,3.75321 3.12684,3.7674 1.64673,0.0302 8.01385,-4.58645 9.9011,-7.17909 1.55643,-2.13818 5.20927,-2.30495 9.54216,-0.43564 1.73312,0.74771 4.36036,1.85018 5.8383,2.44993 1.47795,0.59976 4.51508,3.40294 6.74919,6.2293 2.2341,2.82635 5.90023,6.56138 8.14694,8.30006 2.24673,1.73868 6.3646,5.34482 9.15085,8.01364 7.507,7.19062 12.69578,10.6476 15.98164,10.6476 4.24121,0 7.21026,1.78172 5.80023,3.48071 -1.77645,2.14049 0.58783,2.82497 3.39793,0.98372 3.22489,-2.11303 6.83429,-1.53827 8.07319,1.28557 0.54291,1.2375 1.50076,2.25 2.12851,2.25 0.62777,0 3.31014,-2.5875 5.96079,-5.75 2.65066,-3.1625 7.96426,-8.79118 11.80799,-12.50819 8.00942,-7.74535 9.03197,-7.86143 14.75144,-1.67471 4.09177,4.42604 6.79465,4.91932 10.59126,1.9329 1.39842,-1.1 3.40425,-2 4.45739,-2 2.91856,0 7.3272,-2.60585 9.17201,-5.42137 1.69178,-2.58199 12.28244,-9.9213 13.53418,-9.37916 0.38164,0.16529 4.76817,4.80053 9.74784,10.30053 4.97968,5.5 13.96064,14.34202 19.9577,19.64893 18.58213,16.44367 28.59302,25.132 36.90375,32.0283 4.4,3.65115 9.55078,8.25493 11.44617,10.23061 l 3.44616,3.59216 -2.73135,0 c -2.45886,0 -2.61999,0.20807 -1.61514,2.08565 1.74393,3.25856 0.6669,3.17238 -4.24323,-0.33954 z M 122.47629,403.24061 c 0,-0.76616 -0.72568,-1.67148 -1.61262,-2.01183 -1.29991,-0.49883 -1.37503,-0.90511 -0.38738,-2.09516 0.98817,-1.19067 0.91075,-1.59702 -0.40011,-2.10004 -1.64207,-0.63012 -4.59989,1.11314 -4.59989,2.71105 0,0.47637 0.77501,1.77127 1.72225,2.87756 1.9719,2.30301 5.27775,2.69038 5.27775,0.61842 z m 247.03048,-1.66395 c 1.19216,-2.22755 -0.19657,-3.34249 -3.03942,-2.4402 -1.87465,0.59499 -2.70889,3.446 -1.39328,4.76159 0.94305,0.94305 3.36423,-0.32491 4.4327,-2.32139 z m -227.03048,-1.52637 c 0,-1.76593 -2.15275,-1.45839 -2.77083,0.39583 -0.21771,0.65312 0.31667,1.1875 1.1875,1.1875 0.87083,0 1.58333,-0.7125 1.58333,-1.58333 z m -17.87772,-7.61517 c -0.89894,-2.43006 -3.12228,-3.6727 -3.12228,-1.74508 0,0.6727 0.7875,1.82089 1.75,2.55153 2.30547,1.7501 2.31577,1.74405 1.37228,-0.80645 z m 294.43157,-5.71437 c -0.77519,-1.25428 -3.55385,-1.47878 -3.55385,-0.28713 0,0.44 0.54001,1.34 1.2,2 1.39799,1.39799 3.38351,-0.0468 2.35385,-1.71287 z m -7.55385,-3.69412 c 0,-0.76615 -0.89999,-1.39301 -2,-1.39301 -1.88258,0 -2.71914,1.94753 -1.40222,3.26443 0.97314,0.97315 3.40222,-0.36299 3.40222,-1.87142 z m -196,-77.39301 c 0,-0.55 -0.47656,-1 -1.05902,-1 -0.58246,0 -0.7809,0.45 -0.44098,1 0.33992,0.55 0.81648,1 1.05902,1 0.24254,0 0.44098,-0.45 0.44098,-1 z m 230.51008,131.98369 c 0.34546,-0.55897 1.04702,-0.75742 1.55902,-0.44098 1.38704,0.85723 1.12841,1.45729 -0.62812,1.45729 -0.85746,0 -1.27636,-0.45734 -0.9309,-1.01631 z m -90.40174,-7.04196 c -2.47241,-2.05898 -2.46144,-3.39819 0.02,-2.44596 1.57818,0.6056 4.32086,4.52319 3.13009,4.47096 -0.41716,-0.0183 -1.83472,-0.92955 -3.15013,-2.025 z m 80.09166,0.85827 c -1.88759,-1.88759 -1.40261,-2.9788 0.8,-1.8 1.10001,0.5887 2,1.50453 2,2.03518 0,1.32439 -1.35417,1.21065 -2.8,-0.23518 z m -12.54201,-2.47534 c -0.36188,-0.3619 -0.65799,-1.56006 -0.65799,-2.66259 0,-1.10252 -0.74473,-2.82752 -1.65499,-3.83333 -0.91024,-1.00581 -1.19592,-1.82874 -0.63486,-1.82874 1.6432,0 6.28985,4.02631 6.28985,5.45014 0,1.63979 -2.46044,3.75607 -3.34201,2.87452 z m -115.4774,-2.83197 c -1.19205,-1.37098 -2.62034,-2.49269 -3.17398,-2.49269 -0.55363,0 -1.00661,-0.675 -1.00661,-1.5 0,-2.84152 3.75404,-0.72546 5.91768,3.33565 1.74507,3.27547 0.83794,3.61858 -1.73709,0.65704 z m 34.40236,1.64152 c -0.43077,-0.697 -0.51316,-1.53733 -0.18309,-1.86741 0.89497,-0.89496 1.87077,0.4213 1.38739,1.87145 -0.33872,1.01617 -0.57427,1.01538 -1.2043,-0.004 z m 8.92713,-1.1179 c -0.73755,-1.19337 0.19857,-3.01631 1.54894,-3.01631 1.2168,0 1.22469,2.70662 0.0101,3.45729 -0.512,0.31644 -1.21355,0.11799 -1.55901,-0.44098 z m 47.98992,-0.0163 c -0.3519,-0.5694 0.5093,-1 2,-1 1.49071,0 2.35191,0.4306 2,1 -0.33992,0.55 -1.23992,1 -2,1 -0.76008,0 -1.66008,-0.45 -2,-1 z m -77.25,-0.66228 c -0.6875,-0.27741 -1.25,-0.84465 -1.25,-1.26054 0,-1.15557 4.77845,-3.07718 7.65201,-3.07718 l 2.55791,0 -2.35496,2.48272 c -2.28577,2.40978 -4.02177,2.89734 -6.60496,1.855 z m 85.19113,-0.86952 c 1.06762,-0.80751 2.86762,-1.45225 4,-1.43276 1.88217,0.0324 1.84431,0.15809 -0.44113,1.46456 -3.45015,1.97228 -6.1763,1.94792 -3.55887,-0.0318 z m -107.49471,-9.02524 c -1.566,-1.66692 -3.088,-2.37769 -4.37228,-2.04185 -1.08353,0.28336 -2.5693,0.0179 -3.30172,-0.58998 -0.97242,-0.80705 -1.98841,-0.80593 -3.76632,0.004 -2.81851,1.2842 -3.21752,0.85654 -3.30611,-3.54349 -0.036,-1.78602 -1.16098,-4.68989 -2.51827,-6.5 -2.76167,-3.68294 -6.68172,-11.15252 -6.68172,-12.7318 0,-1.79198 2.83601,-1.13188 3.45013,0.80303 1.80079,5.67375 13.05295,17.37534 20.17654,20.98239 3.96987,2.01016 5.89254,4.32219 4.63776,5.57697 -1.03722,1.03723 -1.84897,0.6689 -4.318,-1.95927 z m 112.74808,0.41809 c 2.30492,-2.30492 5.3055,-1.9613 5.3055,0.60757 0,1.1009 -1.04634,1.53138 -3.72222,1.53138 l -3.72222,0 2.13894,-2.13895 z m -53.1945,0.13895 c 0.33992,-0.55 1.04148,-1 1.55902,-1 0.51754,0 0.94098,0.45 0.94098,1 0,0.55 -0.70155,1 -1.55901,1 -0.85746,0 -1.2809,-0.45 -0.94099,-1 z m -79.15492,-3.54313 c -0.80982,-2.11034 0.54185,-3.2497 1.69398,-1.42791 1.22421,1.93575 1.19966,2.97104 -0.0704,2.97104 -0.56727,0 -1.29786,-0.69441 -1.62354,-1.54313 z m 215.65492,-1.45687 c 0,-0.55 0.45,-1 1,-1 0.55,0 1,0.45 1,1 0,0.55 -0.45,1 -1,1 -0.55,0 -1,-0.45 -1,-1 z M 148.82137,406.0905 c -0.32568,-0.84872 -0.3415,-1.79378 -0.0352,-2.10013 0.87571,-0.87571 2.69007,0.60965 2.69007,2.20228 0,1.91885 -1.90755,1.84546 -2.65492,-0.10215 z m 337.65492,-2.45687 c 0,-0.55 0.45,-1 1,-1 0.55,0 1,0.45 1,1 0,0.55 -0.45,1 -1,1 -0.55,0 -1,-0.45 -1,-1 z m -220,-11.10841 c 0,-0.68296 -0.95959,-0.86756 -2.5,-0.48095 -2.79525,0.70157 -3.28969,-0.51037 -0.98767,-2.42087 0.92754,-0.7698 1.1742,-1.68717 0.63789,-2.37245 -0.48095,-0.61453 -1.17007,-2.35482 -1.53138,-3.86732 -1.0763,-4.50547 1.70357,-3.32439 4.18189,1.77675 2.3338,4.80366 2.85318,8.47325 1.19927,8.47325 -0.55,0 -1,-0.49878 -1,-1.10841 z m 0,-33.39159 c -0.71755,-0.86459 -0.81473,-1.5 -0.22943,-1.5 0.5585,0 1.27448,0.675 1.59106,1.5 0.31658,0.825 0.41982,1.5 0.22944,1.5 -0.1904,0 -0.90638,-0.675 -1.59107,-1.5 z m 86.74491,-0.26132 c -2.91485,-1.80715 -3.12736,-3.53532 -0.49748,-4.04555 0.89239,-0.17314 1.8662,0.58952 2.23452,1.75 0.37096,1.1688 1.51273,2.05687 2.64445,2.05687 1.0954,0 1.71352,0.45 1.3736,1 -0.88146,1.42624 -2.59152,1.20003 -5.7551,-0.76132 z m 31.85165,0.91755 c -0.34604,-0.55992 -0.1419,-1.31919 0.45367,-1.68727 1.53748,-0.95021 2.52947,0.35135 1.24597,1.63484 -0.71818,0.71818 -1.27752,0.73543 -1.69964,0.0524 z m -26.84656,-6.88349 c -1.5125,-0.76003 -2.75,-2.05636 -2.75,-2.88073 0,-2.14816 5.03229,-8.28281 8.15,-9.93533 2.10006,-1.11313 2.65,-2.13635 2.65,-4.93065 0,-4.04781 -1.38476,-4.48806 -4.8,-1.52603 -2.75133,2.38622 -2.88883,2.39794 -6.59636,0.56263 -3.04032,-1.50502 -5.42488,-1.21478 -16.76847,2.04106 -5.32733,1.52905 -9.05869,1.67598 -12.12855,0.47756 -1.80429,-0.70435 -1.662,-0.95823 1.5,-2.67632 1.92136,-1.04398 4.39338,-2.17523 5.49338,-2.51389 2,-0.61574 2,-0.61574 0,-1.32639 -1.1,-0.39086 -2.78139,-1.1278 -3.73643,-1.63765 -3.18293,-1.69922 -8.59843,-1.10407 -9.76357,1.073 -0.59087,1.10406 -2.06254,1.98135 -3.28518,1.95837 -1.98088,-0.0372 -1.81048,-0.39883 1.61326,-3.42347 2.66718,-2.35627 4.78999,-3.3728 7,-3.35202 1.74457,0.0164 4.40942,-0.2955 5.92192,-0.69311 2.36153,-0.6208 2.75,-0.42393 2.75,1.39365 0,1.16412 0.50248,2.11658 1.11663,2.11658 0.6243,0 0.88603,-0.88181 0.59362,-2 -0.28766,-1.1 -0.17634,-2 0.24737,-2 0.42371,0 1.98704,-1.75564 3.47406,-3.90142 2.23639,-3.2271 3.38686,-3.96657 6.65635,-4.27836 4.78363,-0.4562 6.44322,0.32645 10.65556,5.02506 l 3.24359,3.61803 1.56312,-2.23166 c 0.85971,-1.2274 2.2126,-2.23165 3.0064,-2.23165 1.85244,0 1.82394,0.30878 -0.46595,5.04831 l -1.90924,3.95169 2.7868,0 c 3.00231,0 5.60751,2.2593 4.55986,3.95444 -0.35422,0.57313 0.0231,1.9945 0.83847,3.15861 0.81536,1.1641 1.22587,2.78531 0.91221,3.60268 -0.31365,0.81736 0.054,1.87196 0.81708,2.34355 2.27735,1.40748 -0.41917,3.17934 -5.02218,3.30004 -2.24056,0.0588 -4.07375,0.2993 -4.07375,0.53455 0,0.23525 1.39594,1.67402 3.10208,3.19726 3.28816,2.93567 3.23302,5.07076 -0.10839,4.19697 -1.10238,-0.28828 -2.56444,-0.0987 -3.24901,0.42118 -0.80834,0.61394 -2.20869,0.46091 -3.99467,-0.43654 z m 2.25,-21.77274 c 0,-0.825 -0.45,-1.5 -1,-1.5 -0.55,0 -1,0.675 -1,1.5 0,0.825 0.45,1.5 1,1.5 0.55,0 1,-0.675 1,-1.5 z m -18.85,-10 c 0,-0.5225 -0.48375,-1.11125 -1.075,-1.30833 -0.59125,-0.19709 -1.075,0.39166 -1.075,1.30833 0,0.91667 0.48375,1.50542 1.075,1.30833 0.59125,-0.19708 1.075,-0.78583 1.075,-1.30833 z m 44.85,31.94098 c 0,-0.85746 0.45,-1.2809 1,-0.94098 0.55,0.33992 1,1.04148 1,1.55902 0,0.51754 -0.45,0.94098 -1,0.94098 -0.55,0 -1,-0.70156 -1,-1.55902 z m -254.7792,-3.01093 c -1.10824,-1.98031 0.80819,-8.43005 2.50484,-8.43005 1.8092,0 2.70376,4.76216 1.42272,7.57374 -1.27454,2.7973 -2.67095,3.10176 -3.92756,0.85631 z m 270.2792,-1.8333 c 1.65,-0.72217 3.21197,-1.1274 3.47104,-0.90052 0.79487,0.6961 -2.35174,2.27492 -4.47104,2.24335 -1.5163,-0.0226 -1.27445,-0.34735 1,-1.34283 z m 5.24295,-0.18713 c -1.25254,-1.25254 5.20646,-5.47669 11.39921,-7.45503 3.47782,-1.11103 6.75857,-2.45533 7.29057,-2.98732 1.2793,-1.2793 3.56727,-1.23817 3.56727,0.0641 0,0.56726 -0.7875,1.30154 -1.75,1.63173 -0.96249,0.33019 -5.57396,2.45357 -10.24772,4.71861 -4.67374,2.26505 -8.75187,4.24015 -9.0625,4.38911 -0.31063,0.14895 -0.8492,-0.0136 -1.19683,-0.36122 z m -19.30088,-1.31587 c 0.89119,-1.44198 12.77485,-6.72426 16.84589,-7.48799 2.70983,-0.50837 4.11336,-1.48115 5.21744,-3.61619 0.98228,-1.89954 2.03208,-2.72055 3.0025,-2.34817 2.28876,0.87828 1.79066,2.15285 -1.50789,3.8586 -1.65,0.85325 -3,1.96875 -3,2.47889 0,1.08494 -7.41575,4.51424 -11.88425,5.49569 -1.70105,0.37361 -3.34953,1.09467 -3.6633,1.60236 -0.31377,0.50768 -1.69548,0.92306 -3.07048,0.92306 -1.375,0 -2.24796,-0.40781 -1.93991,-0.90625 z m 52.6752,-4.96083 c -3.32999,-0.93318 -0.94972,-2.69364 4.59362,-3.39747 4.30792,-0.54696 7.16645,1.03597 5.81619,3.22075 -0.70398,1.13906 -6.61748,1.23946 -10.40981,0.17672 z m -57.8881,-1.32042 c 0.2177,-0.65312 0.93052,-1.36573 1.58401,-1.58356 0.73075,-0.24358 0.95424,0.21359 0.58051,1.1875 -0.69752,1.81771 -2.76448,2.19592 -2.16452,0.39606 z m 4.95833,-2.875 c 0.24063,-0.72188 1.02812,-1.50938 1.75,-1.75 0.75,-0.25 1.125,0.125 0.875,0.875 -0.24063,0.72188 -1.02812,1.50938 -1.75,1.75 -0.75,0.25 -1.125,-0.125 -0.875,-0.875 z m -88.69018,-1.94186 c -0.72443,-1.17213 1.83818,-2.38381 3.71704,-1.75752 0.82832,0.27611 0.50837,0.83991 -0.90633,1.59703 -1.44146,0.77144 -2.39933,0.82614 -2.81071,0.16049 z m 94.50268,0.004 c 0,-0.55 0.70156,-1 1.55902,-1 0.85746,0 1.2809,0.45 0.94098,1 -0.33992,0.55 -1.04147,1 -1.55901,1 -0.51754,0 -0.94099,-0.45 -0.94099,-1 z m -106,-4.96482 c 0,-1.57109 3.23499,-2.83644 7.25,-2.83579 4.63674,7.5e-4 4.80452,1.01751 0.42901,2.59972 -4.00106,1.4468 -7.67901,1.55987 -7.67901,0.23607 z m 86.01058,-0.52244 c -1.46754,-1.76827 -0.65528,-4.51274 1.33559,-4.51274 2.00186,0 3.98389,2.6975 3.29709,4.48726 -0.74098,1.93097 -3.04077,1.94362 -4.63269,0.0255 z m -70.03253,-3.98628 c 1.47289,-1.77473 7.32208,-3.01168 9.76443,-2.06492 1.64233,0.63665 1.63031,0.77493 -0.18361,2.10988 -1.06762,0.78572 -3.93522,1.42858 -6.37243,1.42858 -3.79021,0 -4.2544,-0.21319 -3.20839,-1.47354 z m 64.56467,-2.45736 c -0.68308,-1.10523 0.8944,-2.29865 1.81781,-1.37525 0.95078,0.95079 0.77359,2.30615 -0.30151,2.30615 -0.51754,0 -1.19988,-0.41891 -1.51631,-0.9309 z m -74.54272,-2.51031 c 0,-0.65317 5.51488,-2.98679 9.25,-3.91413 3.27686,-0.81357 3.69168,0.781 0.6295,2.41983 -2.28329,1.22198 -9.8795,2.37093 -9.8795,1.4943 z m -5,-9.98924 c 0,-0.78675 -1.0079,-1.57425 -2.23978,-1.75 -1.24016,-0.17693 -2.40029,-1.1611 -2.59944,-2.20513 -0.30944,-1.62237 0.0381,-1.77991 2.48978,-1.12857 1.5672,0.41637 5.86355,0.76686 9.54743,0.77887 4.72626,0.0154 6.85244,0.42432 7.22265,1.38906 0.28855,0.75197 0.64946,1.68495 0.802,2.07329 0.15255,0.38834 -1.81432,0.57745 -4.37081,0.42024 -2.5565,-0.15722 -4.94556,0.19533 -5.30902,0.78342 -0.99627,1.612 -5.54281,1.31574 -5.54281,-0.36118 z m -183.5,-2.17187 c -1.09999,-0.84404 -2.62567,-1.89455 -3.39039,-2.33447 -2.417612,-1.39078 -0.33653,-3.18688 2.18675,-1.88731 1.21201,0.62423 2.87864,1.45155 3.70364,1.83851 1.69352,0.79433 2.02082,3.16295 0.5,3.6184 -0.55,0.16472 -1.9,-0.39109 -3,-1.23513 z m 160.75,-10.05996 c -0.6875,-0.27741 -1.25,-1.15772 -1.25,-1.95624 0,-1.14197 0.42687,-1.22339 2,-0.38148 3.19407,1.70941 2.56353,3.67476 -0.75,2.33772 z m -13.30172,-9.4867 c -1.40343,-1.07 -3.42844,-1.91628 -4.5,-1.88064 -11.98208,0.39857 -15.31795,-0.54741 -11.45983,-3.24974 1.45701,-1.02052 3.46433,-1.33547 6.18549,-0.97048 2.63213,0.35304 4.29241,0.1133 4.78989,-0.69164 0.53885,-0.87187 2.04165,-0.0498 5.14128,2.81226 2.83441,2.6172 4.02967,4.37617 3.38738,4.98496 -0.62841,0.59564 -1.92854,0.22708 -3.54421,-1.00472 z m -110.32328,-4.64877 c -0.91887,-1.48677 1.15533,-3.48457 4.98463,-4.80102 5.06904,-1.74265 5.59792,-0.86936 1.62391,2.68142 -3.23099,2.88688 -5.65402,3.66404 -6.60854,2.1196 z"
       id="path4416"
       inkscape:connector-curvature="0" />
    <path
       style="fill:#202020"
       d="m 505.84384,436.45411 c -5.96033,-4.47358 -10.36755,-9.30132 -10.36755,-11.35677 0,-2.70532 -0.99284,-3.71456 -2.45799,-2.49858 -1.61721,1.34216 -8.29203,-3.33743 -13.50074,-9.46514 -2.33757,-2.75 -6.00313,-6.58596 -8.14569,-8.52435 -2.14257,-1.93839 -3.89558,-4.34904 -3.89558,-5.35699 0,-3.41099 3.17602,-1.29112 19.80175,13.21687 5.88404,5.13454 11.77989,10.52752 13.10189,11.98439 1.32201,1.45687 3.34701,3.1206 4.5,3.69718 1.153,0.57658 2.10781,1.9336 2.1218,3.01561 0.0161,1.24118 0.66195,1.91603 1.75,1.8284 1.17902,-0.0949 1.72456,0.59813 1.72456,2.19098 0,3.35174 -1.36046,3.72424 -4.63245,1.2684 z m -92.36755,-19.82049 c 0,-0.55 0.45,-1 1,-1 0.55,0 1,0.45 1,1 0,0.55 -0.45,1 -1,1 -0.55,0 -1,-0.45 -1,-1 z m -127.61874,-10.25 c -0.40522,-0.6875 -1.41828,-2.375 -2.25124,-3.75 -1.41484,-2.33551 -1.30444,-2.30675 1.67775,0.43709 1.75572,1.6154 3.19223,3.3029 3.19223,3.75 0,1.25884 -1.7958,0.95911 -2.61874,-0.43709 z m -5.40132,-8.27417 c -0.69572,-0.83829 -1.01228,-1.77683 -0.70346,-2.08564 0.30881,-0.30882 1.06378,0.37706 1.67768,1.52416 1.30986,2.44747 0.8236,2.72772 -0.97422,0.56148 z m 92.31566,-1.04809 c -1.20253,-2.62912 -1.1988,-2.63216 2.39605,-1.95776 2.5045,0.46984 3.8477,0.27537 4.41275,-0.63891 1.1216,-1.81477 3.20239,0.32848 2.73075,2.81271 -0.2616,1.37791 -1.3809,1.92849 -4.34378,2.13669 -3.47023,0.24386 -4.14861,-0.0633 -5.19576,-2.35273 z M 172.62965,395.6437 c -0.72727,-2.08624 -1.50824,-2.81113 -2.58393,-2.39835 -1.01142,0.38812 -1.87025,-0.21721 -2.49714,-1.76007 -1.80693,-4.44711 -5.16695,-6.53703 -9.76579,-6.07431 -3.35688,0.33777 -4.25466,0.84827 -4.5,2.55883 -0.23117,1.61172 -1.22812,2.28584 -4.0565,2.74294 -2.19516,0.35476 -3.75,0.1996 -3.75,-0.37422 0,-0.5912 -2.08372,-0.74483 -5.25,-0.38708 -8.35016,0.94345 -11.94539,-3.08475 -5.25,-5.88227 2.70466,-1.13007 3.5,-2.04276 3.5,-4.01636 0,-2.0213 0.38229,-2.43263 1.83294,-1.97221 2.36387,0.75026 5.07106,-4.27025 2.99463,-5.55355 -0.70113,-0.43332 -1.56937,-0.31121 -1.92941,0.27137 -0.36005,0.58257 -2.509,1.39831 -4.77545,1.81276 -4.3345,0.79262 -4.23011,0.85089 -10.4609,-5.83912 -1.78791,-1.91969 -1.78107,-2.00424 0.25,-3.09124 2.75626,-1.4751 2.82663,-4.47357 0.0882,-3.75745 -2.93004,0.76622 -2.44017,-0.84013 1.00413,-3.29269 2.61402,-1.86135 3.08241,-1.93512 3.60699,-0.56809 0.91269,2.37843 3.25243,1.89803 7.06674,-1.45099 3.38195,-2.96939 5.32214,-3.16113 5.32214,-0.52595 0,1.65899 1.74516,2.35447 5,1.99259 1.375,-0.15287 2.99027,-0.31545 3.58949,-0.36129 0.59922,-0.0458 1.61455,-1.09583 2.25629,-2.33333 1.02965,-1.98553 4.76998,-8.16391 6.89917,-11.39625 0.99652,-1.51282 13.13982,-7.35375 15.28846,-7.35375 0.92344,0 3.6562,-1.4767 6.07279,-3.28155 5.36855,-4.00954 9.40555,-5.84304 11.2808,-5.12344 2.05624,0.78906 2.87607,-1.20091 1.44127,-3.49839 -1.02647,-1.64363 -0.94636,-2.30865 0.46613,-3.86942 0.93807,-1.03657 1.7056,-2.60642 1.7056,-3.48855 0,-0.88213 0.91582,-1.89454 2.03515,-2.24981 1.11933,-0.35526 3.05114,-2.25125 4.29289,-4.21331 2.15905,-3.41142 2.51818,-3.57192 8.21485,-3.67145 5.55524,-0.0971 5.94104,-0.25587 5.7189,-2.35408 -0.17562,-1.65876 0.28424,-2.25 1.75,-2.25 1.09352,0 2.00247,0.5625 2.01989,1.25 0.0174,0.6875 0.95496,0.0125 2.08341,-1.5 3.62679,-4.86112 12.88491,-2.63728 12.88491,3.09501 0,1.01476 0.9,2.6595 2,3.65499 1.1,0.99549 2,2.58513 2,3.53254 0,0.94742 0.65198,2.26367 1.44885,2.92501 1.57717,1.30893 3.01858,5.37802 4.02587,11.36501 0.50817,3.02042 1.23502,4.0289 3.46377,4.80584 2.55696,0.89137 2.71504,1.21103 1.69107,3.41964 -0.62126,1.33999 -1.65753,2.43987 -2.30283,2.44416 -1.77575,0.0118 -7.22282,-4.88634 -8.74231,-7.86132 -1.58021,-3.09386 -5.58442,-18.58087 -5.58442,-21.59876 0,-2.87887 -2.74141,-6.53212 -4.90172,-6.53212 -0.98357,0 -2.64555,0.94788 -3.69329,2.10641 -2.52095,2.7875 -8.71849,5.89359 -11.7594,5.89359 -3.33953,0 -8.26166,4.86865 -7.83733,7.75219 0.36394,2.4732 3.59023,4.69261 5.66444,3.89666 1.0023,-0.38462 1.30289,0.93157 1.25971,5.51579 -0.0452,4.79694 -0.44188,6.25619 -1.95135,7.17815 -2.82831,1.72747 -5.44292,6.60405 -6.18648,11.53849 -0.36311,2.40971 -1.77044,6.72813 -3.12739,9.59649 -1.35695,2.86837 -2.46718,5.89635 -2.46718,6.72884 0,0.8325 -1.59473,3.20454 -3.54385,5.2712 l -3.54383,3.75756 -4.54463,-1.27241 c -2.49953,-0.69983 -6.0084,-2.26578 -7.7975,-3.47989 -3.61719,-2.45468 -12.89544,-5.01813 -14.52273,-4.01241 -1.57554,0.97374 -1.25955,3.31127 0.58734,4.34484 1.46899,0.82209 1.41827,1.13142 -0.5,3.04969 -1.17414,1.17415 -2.13481,2.88688 -2.13481,3.80607 0,0.91919 -0.71908,2.46584 -1.59796,3.43699 -2.48198,2.74255 -0.81152,3.89175 5.65698,3.89175 5.37488,0 5.94098,0.20077 5.94098,2.10699 0,1.40859 0.47036,1.92649 1.41901,1.56246 0.78046,-0.29949 2.42431,0.32737 3.65301,1.39301 2.97162,2.57727 3.51417,2.45015 3.4674,-0.81246 -0.0386,-2.69242 0.0862,-2.75123 5.96058,-2.80891 3.3,-0.0324 7.06409,-0.63834 8.36464,-1.34654 2.0746,-1.12969 2.97416,-0.95588 7.33409,1.4171 3.72887,2.0295 5.75646,2.54731 8.12197,2.07421 2.8271,-0.56542 2.99488,-0.47287 1.62541,0.8966 -1.28202,1.28202 -2.46049,1.35455 -7.34316,0.45194 -5.4616,-1.00963 -5.90869,-0.9429 -7.33604,1.09491 -1.16581,1.66444 -2.18048,2.03798 -4.35467,1.60314 -1.55908,-0.31182 -3.1037,-0.13168 -3.43248,0.4003 -0.32879,0.53199 -1.48536,0.96725 -2.57016,0.96725 -2.4828,0 -3.58288,2.69226 -2.08205,5.09547 0.91951,1.47237 0.86769,1.72481 -0.26486,1.29021 -0.77443,-0.29717 -1.65372,-1.18052 -1.95399,-1.963 -0.30932,-0.80609 -1.88697,-1.42268 -3.64017,-1.42268 -2.38991,0 -3.02871,0.39835 -2.80635,1.75 0.76523,4.65145 -3.45636,5.71348 -5.00881,1.26008 z m -20.61224,-13.07661 c 0.92035,-1.48915 -0.14672,-2.29879 -2.06137,-1.56407 -0.88358,0.33906 -1.32643,1.06965 -0.98411,1.62354 0.81057,1.31154 2.2151,1.28411 3.04548,-0.0595 z m 2.01775,-6.46527 c -2.19105,-1.65724 -4.55887,-1.93654 -4.55887,-0.53775 0,0.80928 2.147,1.55158 5.5,1.90156 0.55,0.0574 0.1265,-0.55631 -0.94113,-1.36381 z m -20.73554,-7.13533 c -0.48655,-2.50877 -2.82333,-2.85325 -2.82333,-0.4162 0,1.22833 0.64569,2.08333 1.57333,2.08333 0.93124,0 1.44137,-0.68037 1.25,-1.66713 z m 71.17297,-41.82893 c 1.2897,-1.37283 2.04247,-2.79851 1.6728,-3.16817 -1.15068,-1.15068 -5.6691,1.90448 -5.6691,3.83321 0,2.49975 1.21272,2.29794 3.9963,-0.66504 z m -69.9963,68.49606 c 0,-0.55 0.42345,-1 0.94099,-1 0.51754,0 1.2191,0.45 1.55901,1 0.33992,0.55 -0.0835,1 -0.94098,1 -0.85746,0 -1.55902,-0.45 -1.55902,-1 z m 329.19612,0.28721 c -2.19594,-0.4198 -4.90328,-4.91339 -3.69076,-6.1259 0.30873,-0.30872 2.22631,1.10369 4.26132,3.13869 2.035,2.035 3.2575,3.63872 2.71666,3.56382 -0.54084,-0.0749 -2.02009,-0.33438 -3.28722,-0.57661 z M 359.47629,394.0746 c 0,-0.85746 0.45,-1.2809 1,-0.94098 0.55,0.33992 1,1.04148 1,1.55902 0,0.51754 -0.45,0.94098 -1,0.94098 -0.55,0 -1,-0.70156 -1,-1.55902 z m -24,-3.45629 c -1.33333,-0.87528 -1.33333,-1.0941 0,-1.96938 2.24832,-1.47592 3,-1.2292 3,0.98469 0,2.21389 -0.75168,2.46061 -3,0.98469 z m 42.5,-0.98469 c 1.6277,-1.79859 1.64331,-2 0.15499,-2 -2.71098,0 -1.97222,-1.24337 4.62192,-7.77889 6.31058,-6.25449 8.2215,-7.09511 11.78883,-5.18593 2.94494,1.57609 2.31327,2.60747 -1.33601,2.18143 -4.43268,-0.51749 -6.98664,2.24882 -6.1123,6.6205 0.34792,1.73959 1.25133,3.16289 2.00758,3.16289 0.75625,0 1.375,0.675 1.375,1.5 0,0.825 -0.46412,1.5 -1.03138,1.5 -0.56727,0 -1.29041,-0.675 -1.60699,-1.5 -0.86653,-2.25813 -3.86169,-1.80576 -6.50667,0.98272 -2.92013,3.07856 -6.11927,3.57181 -3.35496,0.51728 z m 42.65,1.05 c 0.42971,-1.28914 1.80131,-1.5207 1.925,-0.325 0.0412,0.39875 -0.465,0.905 -1.125,1.125 -0.66,0.22 -1.02,-0.14 -0.8,-0.8 z m -8.9,-1.16878 c -3.50511,-1.01207 -4.41659,-2.88122 -1.40499,-2.88122 1.01477,0 2.6595,0.9 3.65499,2 0.99549,1.1 1.62773,1.95942 1.40499,1.90981 -0.22275,-0.0496 -1.86748,-0.51247 -3.65499,-1.02859 z m 41.78456,-1.81665 c -0.60771,-1.13552 -1.70678,-2.06457 -2.44238,-2.06457 -1.52727,0 -8.73068,-7.5165 -10.64312,-11.10571 -1.85657,-3.48436 -4.01164,-4.82654 -7.80747,-4.86249 -3.05776,-0.029 -3.30409,0.18461 -2.75167,2.38562 0.3337,1.32958 0.22577,3.44724 -0.23984,4.70592 -0.46562,1.25867 -0.48973,3.8707 -0.0536,5.8045 0.89317,3.96017 0.24986,5.44244 -1.22118,2.81383 -0.53607,-0.95792 -2.06695,-1.74167 -3.40194,-1.74167 -1.50812,0 -3.06992,-0.98083 -4.12441,-2.59018 -1.36795,-2.08778 -2.24525,-2.48056 -4.52305,-2.025 -1.55424,0.31085 -2.8259,0.17521 -2.8259,-0.30141 0,-1.17622 4.47411,-2.22245 6.37867,-1.4916 1.0901,0.41831 1.73438,-0.23677 2.21377,-2.25089 0.85177,-3.57863 2.75494,-5.77871 8.3182,-9.61588 l 4.41064,-3.04216 3.47388,3.90856 c 2.91366,3.27825 18.10938,19.96955 18.97902,20.84694 0.15078,0.15214 -0.38034,0.8198 -1.18028,1.48369 -1.17523,0.97536 -1.66651,0.81076 -2.55934,-0.8575 z m -26.57727,-9.99547 c 0.31644,-0.512 0.118,-1.21356 -0.44098,-1.55902 -0.55897,-0.34546 -1.01631,0.0734 -1.01631,0.9309 0,1.75653 0.60006,2.01516 1.45729,0.62812 z m -98.93361,6.6809 c -1.99768,-2.3375 -5.16757,-5.17999 -7.04419,-6.31665 -3.93512,-2.38348 -10.61861,-10.39922 -9.78946,-11.74082 0.31173,-0.50439 -0.3596,-0.61479 -1.5128,-0.24878 -1.62545,0.5159 -2.40843,0.01 -3.62523,-2.3432 -1.88265,-3.64066 -2.04971,-7.43197 -0.30199,-6.85346 0.6875,0.22757 3.23193,2.85257 5.6543,5.83334 2.42236,2.98076 5.12236,5.71953 6,6.08616 0.87763,0.36662 5.14747,3.97218 9.48852,8.01234 6.66767,6.20554 7.78257,7.6931 7.18261,9.58342 -0.99603,3.13822 -1.90954,2.83446 -6.05176,-2.01235 z m 74.50528,-0.71094 c -0.80907,-0.51167 -1.16598,-1.23537 -0.79313,-1.60823 0.9151,-0.91509 3.76417,0.24885 3.76417,1.53779 0,1.2701 -1.03529,1.29465 -2.97104,0.0704 z m 15.97104,-0.0391 c 0,-0.55 0.675,-1 1.5,-1 0.825,0 1.5,0.45 1.5,1 0,0.55 -0.675,1 -1.5,1 -0.825,0 -1.5,-0.45 -1.5,-1 z m -202.45,-4.87366 c 1.25151,-1.15094 9.45,-2.15907 9.45,-1.16203 0,0.4257 -1.6875,1.05293 -3.75,1.39384 -5.26204,0.86976 -6.82856,0.80606 -5.7,-0.23181 z m 54.44813,-1.63127 c -1.65202,-4.34513 -1.3026,-5.72648 1.24403,-4.91821 1.82676,0.57979 2.03758,0.45333 1.1379,-0.68261 -2.38832,-3.01547 -2.49415,-6.8209 -0.27328,-9.82481 1.57833,-2.1348 1.97253,-3.66157 1.48172,-5.73901 l -0.66868,-2.83043 2.0335,3 c 1.11843,1.65 2.03648,3.5625 2.04009,4.25 0.004,0.6875 1.03147,1.25 2.28408,1.25 2.56395,0 5.73802,-1.91287 10.37434,-6.25214 2.5901,-2.42415 3.69168,-2.83132 6.18091,-2.2846 1.66598,0.36591 3.62266,1.38941 4.34816,2.27443 1.16778,1.42454 1.03229,1.52182 -1.1809,0.84803 -4.66658,-1.4207 -6.46219,-1.19539 -6.48163,0.81332 -0.012,1.2447 -1.74122,2.82512 -5.01837,4.58668 -5.03063,2.70409 -9.5,7.87343 -9.5,10.98785 0,1.57024 -2.91216,4.82969 -5.75187,6.43784 -0.79859,0.45225 -1.61327,-0.24161 -2.25,-1.91634 z m -31.24813,-1.1844 c -0.9625,-0.25152 -1.75,-0.87432 -1.75,-1.38399 0,-1.41279 1.60647,-1.10578 3,0.57332 0.68469,0.825 1.07729,1.4478 0.87244,1.384 -0.20483,-0.0638 -1.15994,-0.3218 -2.12244,-0.57333 z m 12.69113,-1.77887 c -1.06762,-0.8075 -1.43373,-1.4825 -0.81357,-1.5 0.62015,-0.0175 1.68775,0.6432 2.37244,1.4682 1.58079,1.90474 0.9348,1.91792 -1.55887,0.0318 z m -4.94113,-6.5318 c 0.33992,-0.55 0.81648,-1 1.05902,-1 0.24254,0 0.44098,0.45 0.44098,1 0,0.55 -0.47656,1 -1.05902,1 -0.58246,0 -0.7809,-0.45 -0.44098,-1 z m 17.66258,-16.32694 c -2.78335,-2.96275 -2.72491,-3.67306 0.30224,-3.67306 3.02743,0 5.14264,3.25097 3.17675,4.88251 -0.99225,0.82349 -1.84891,0.52568 -3.47899,-1.20945 z m -132.14726,-3.42306 c 0.0279,-1.36867 1.8663,-3.70172 2.45385,-3.11417 0.78775,0.78775 -0.46709,3.86417 -1.57615,3.86417 -0.49116,0 -0.88612,-0.3375 -0.8777,-0.75 z m 131.65135,-2.91667 c -0.95569,-0.95569 -0.82206,-2.33333 0.22634,-2.33333 0.49116,0 1.15204,0.675 1.46862,1.5 0.58492,1.52428 -0.4803,2.04799 -1.69496,0.83333 z m 133.83333,-2.33333 c 0.33992,-0.55 1.37898,-0.99311 2.30902,-0.98469 1.45727,0.0132 1.48367,0.14929 0.19098,0.98469 -1.95837,1.2656 -3.28218,1.2656 -2.5,0 z m -69.29608,-7.11177 c 0.2985,-0.89549 2.16033,-1.42839 5.28482,-1.51265 5.32135,-0.1435 4.33052,1.00718 -1.8672,2.16848 -3.07622,0.5764 -3.78314,0.44075 -3.41762,-0.65583 z m -39.20392,-5.28124 c 0,-0.21616 0.675,-0.65203 1.5,-0.96862 0.825,-0.31658 1.5,-0.13972 1.5,0.39301 0,0.53274 -0.675,0.96862 -1.5,0.96862 -0.825,0 -1.5,-0.17685 -1.5,-0.39301 z m 60.75525,-7.10699 c -0.26285,-1.375 -0.0903,-2.5 0.38342,-2.5 0.47373,0 0.86133,1.125 0.86133,2.5 0,1.375 -0.17254,2.5 -0.38342,2.5 -0.21089,0 -0.59848,-1.125 -0.86133,-2.5 z"
       id="path4414"
       inkscape:connector-curvature="0" />
  </g>
</svg>
